<svg width="17" height="17" viewBox="0 0 17 17" fill="none" xmlns="http://www.w3.org/2000/svg">
<path d="M7.33342 14.0001C8.81256 13.9998 10.2491 13.5046 11.4142 12.5934L15.0776 16.2567L16.2559 15.0784L12.5926 11.4151C13.5042 10.2498 13.9997 8.81295 14.0001 7.33341C14.0001 3.65758 11.0092 0.666748 7.33342 0.666748C3.65758 0.666748 0.666748 3.65758 0.666748 7.33341C0.666748 11.0092 3.65758 14.0001 7.33342 14.0001ZM7.33342 2.33341C10.0909 2.33341 12.3334 4.57591 12.3334 7.33341C12.3334 10.0909 10.0909 12.3334 7.33342 12.3334C4.57591 12.3334 2.33341 10.0909 2.33341 7.33341C2.33341 4.57591 4.57591 2.33341 7.33342 2.33341Z" fill="white"/>
</svg>
