<svg width="26" height="26" viewBox="0 0 26 26" fill="none" xmlns="http://www.w3.org/2000/svg">
<path d="M5.52778 11.3194C7.52778 15.25 10.75 18.4583 14.6806 20.4722L17.7361 17.4167C18.1111 17.0417 18.6667 16.9167 19.1528 17.0833C20.7083 17.5972 22.3889 17.875 24.1111 17.875C24.875 17.875 25.5 18.5 25.5 19.2639V24.1111C25.5 24.875 24.875 25.5 24.1111 25.5C11.0694 25.5 0.5 14.9306 0.5 1.88889C0.5 1.125 1.125 0.5 1.88889 0.5H6.75C7.51389 0.5 8.13889 1.125 8.13889 1.88889C8.13889 3.625 8.41667 5.29167 8.93055 6.84722C9.08333 7.33333 8.97222 7.875 8.58333 8.26389L5.52778 11.3194Z" fill="#136050"/>
</svg>
