<svg width="18" height="22" viewBox="0 0 18 22" fill="none" xmlns="http://www.w3.org/2000/svg">
<path d="M8.99984 0C4.39269 0 0.666504 3.39083 0.666504 7.58333C0.666504 13.2708 8.99984 21.6667 8.99984 21.6667C8.99984 21.6667 17.3332 13.2708 17.3332 7.58333C17.3332 3.39083 13.607 0 8.99984 0ZM8.99984 10.2917C8.2105 10.2917 7.4535 10.0063 6.89535 9.49841C6.33721 8.9905 6.02365 8.30163 6.02365 7.58333C6.02365 6.86504 6.33721 6.17616 6.89535 5.66825C7.4535 5.16034 8.2105 4.875 8.99984 4.875C9.78917 4.875 10.5462 5.16034 11.1043 5.66825C11.6625 6.17616 11.976 6.86504 11.976 7.58333C11.976 8.30163 11.6625 8.9905 11.1043 9.49841C10.5462 10.0063 9.78917 10.2917 8.99984 10.2917Z" fill="#136050"/>
</svg>
