<svg viewBox="0 0 75 75"  xmlns="http://www.w3.org/2000/svg">
<path d="M71.4844 11.7188H3.51562C3.36173 11.7187 3.20934 11.7491 3.06716 11.8079C2.92498 11.8668 2.79579 11.9532 2.68697 12.062C2.57815 12.1708 2.49184 12.3 2.43294 12.4422C2.37405 12.5843 2.34375 12.7367 2.34375 12.8906V62.1094C2.34375 62.2633 2.37405 62.4157 2.43294 62.5578C2.49184 62.7 2.57815 62.8292 2.68697 62.938C2.79579 63.0468 2.92498 63.1332 3.06716 63.1921C3.20934 63.2509 3.36173 63.2813 3.51562 63.2812H28.5705L29.3196 67.0267C29.365 67.254 29.4769 67.4627 29.6409 67.6264C29.805 67.7902 30.0139 67.9016 30.2413 67.9465C30.4687 67.9915 30.7043 67.9681 30.9183 67.8791C31.1324 67.7902 31.3152 67.6398 31.4438 67.4469L34.2209 63.2812H40.7791L43.5562 67.4469C43.6848 67.6397 43.8676 67.7901 44.0817 67.8791C44.2957 67.968 44.5313 67.9914 44.7587 67.9464C44.986 67.9015 45.195 67.7901 45.359 67.6264C45.5231 67.4627 45.6349 67.254 45.6804 67.0267L46.4295 63.2812H71.4844C71.6383 63.2813 71.7907 63.2509 71.9328 63.1921C72.075 63.1332 72.2042 63.0468 72.313 62.938C72.4218 62.8292 72.5082 62.7 72.5671 62.5578C72.6259 62.4157 72.6563 62.2633 72.6562 62.1094V12.8906C72.6563 12.7367 72.6259 12.5843 72.5671 12.4422C72.5082 12.3 72.4218 12.1708 72.313 12.062C72.2042 11.9532 72.075 11.8668 71.9328 11.8079C71.7907 11.7491 71.6383 11.7187 71.4844 11.7188ZM31.0631 63.7929L30.446 60.7077C30.4158 60.5568 30.3563 60.4133 30.2706 60.2854C30.185 60.1575 30.075 60.0478 29.947 59.9624C29.8189 59.877 29.6753 59.8177 29.5243 59.7879C29.3733 59.758 29.218 59.7582 29.0671 59.7884L25.9819 60.4054L30.2572 53.9924C31.5859 55.6108 33.4176 56.7384 35.461 57.1959L31.0631 63.7929ZM37.5 55.0781C36.1093 55.0781 34.7499 54.6658 33.5936 53.8931C32.4374 53.1205 31.5361 52.0224 31.004 50.7376C30.4718 49.4528 30.3326 48.0391 30.6039 46.6751C30.8752 45.3112 31.5448 44.0584 32.5282 43.075C33.5115 42.0917 34.7643 41.422 36.1283 41.1507C37.4922 40.8794 38.9059 41.0187 40.1907 41.5508C41.4755 42.083 42.5737 42.9842 43.3463 44.1405C44.1189 45.2968 44.5312 46.6562 44.5312 48.0469C44.5291 49.911 43.7877 51.6982 42.4695 53.0164C41.1514 54.3345 39.3642 55.076 37.5 55.0781ZM35.7834 60.9375L37.5 58.3626L39.2166 60.9375H35.7834ZM44.554 60.7077L43.9369 63.7929L39.539 57.1959C41.5824 56.7384 43.4141 55.6108 44.7428 53.9924L49.0181 60.4054L45.9329 59.7884C45.6282 59.7275 45.3117 59.7901 45.0531 59.9625C44.7945 60.1349 44.615 60.4029 44.554 60.7077H44.554ZM70.3125 60.9375H52.1896L49.0646 56.25H64.4531C64.607 56.25 64.7594 56.2197 64.9016 56.1608C65.0438 56.1019 65.173 56.0156 65.2818 55.9068C65.3906 55.798 65.4769 55.6688 65.5358 55.5266C65.5947 55.3844 65.625 55.232 65.625 55.0781V19.9219C65.625 19.768 65.5947 19.6156 65.5358 19.4734C65.4769 19.3312 65.3906 19.202 65.2818 19.0932C65.173 18.9844 65.0438 18.8981 64.9016 18.8392C64.7594 18.7803 64.607 18.75 64.4531 18.75H57.4219V21.0938H63.2812V53.9062H47.5021L46.0923 51.7915C46.2914 51.3382 46.4539 50.8698 46.5783 50.3906H55.0781V48.0469H46.875C46.875 45.5605 45.8873 43.1759 44.1291 41.4178C42.371 39.6596 39.9864 38.6719 37.5 38.6719C35.0136 38.6719 32.629 39.6596 30.8709 41.4178C29.1127 43.1759 28.125 45.5605 28.125 48.0469H19.9219V50.3906H28.4217C28.5461 50.8698 28.7086 51.3382 28.9077 51.7915L27.4979 53.9062H11.7188V21.0938H17.5781V18.75H10.5469C10.393 18.75 10.2406 18.7803 10.0984 18.8392C9.95623 18.8981 9.82704 18.9844 9.71822 19.0932C9.60941 19.202 9.52309 19.3312 9.46419 19.4734C9.4053 19.6156 9.375 19.768 9.375 19.9219V55.0781C9.375 55.232 9.4053 55.3844 9.46419 55.5266C9.52309 55.6688 9.60941 55.798 9.71822 55.9068C9.82704 56.0156 9.95623 56.1019 10.0984 56.1608C10.2406 56.2197 10.393 56.25 10.5469 56.25H25.9354L22.8104 60.9375H4.6875V14.0625H70.3125V60.9375Z" />
<path d="M45.7031 32.8125H52.7344V35.1562H45.7031V32.8125Z" />
<path d="M31.6406 32.8125H43.3594V35.1562H31.6406V32.8125Z" />
<path d="M22.2656 32.8125H29.2969V35.1562H22.2656V32.8125Z" />
<path d="M24.6094 26.9531C24.6094 27.1471 24.6575 27.3379 24.7494 27.5087C24.8414 27.6794 24.9743 27.8247 25.1362 27.9314C25.2981 28.0382 25.4839 28.1031 25.6771 28.1203C25.8702 28.1376 26.0646 28.1066 26.2429 28.0302L31.2146 25.8995C33.2008 25.0483 35.3391 24.6094 37.5 24.6094C39.6609 24.6094 41.7992 25.0483 43.7854 25.8995L48.7571 28.0302C48.9354 28.1066 49.1298 28.1376 49.3229 28.1203C49.5161 28.1031 49.702 28.0382 49.8638 27.9314C50.0257 27.8247 50.1586 27.6794 50.2506 27.5087C50.3425 27.3379 50.3906 27.1471 50.3906 26.9531V21.0938H55.0781V18.75H47.1515L46.9042 18.6263C43.9843 17.1663 40.7646 16.4063 37.5 16.4062C34.2354 16.4063 31.0157 17.1663 28.0958 18.6263L27.8485 18.75H19.9219V21.0938H24.6094V26.9531ZM37.5 18.75C40.4003 18.7535 43.2604 19.4286 45.8561 20.7226L48.0469 21.818V25.1759L44.7086 23.7453C42.4307 22.769 39.9783 22.2656 37.5 22.2656C35.0217 22.2656 32.5693 22.769 30.2914 23.7453L26.9531 25.1759V21.818L29.144 20.7226C31.7396 19.4286 34.5997 18.7535 37.5 18.75Z" />
<path d="M33.9844 28.125H41.0156V30.4688H33.9844V28.125Z" />
<path d="M38.0859 46.875H36.9141C36.6033 46.875 36.3052 46.9985 36.0854 47.2182C35.8657 47.438 35.7422 47.7361 35.7422 48.0469C35.7422 48.3577 35.8657 48.6557 36.0854 48.8755C36.3052 49.0953 36.6033 49.2188 36.9141 49.2188H38.0859C38.3967 49.2188 38.6948 49.0953 38.9146 48.8755C39.1343 48.6557 39.2578 48.3577 39.2578 48.0469C39.2578 47.7361 39.1343 47.438 38.9146 47.2182C38.6948 46.9985 38.3967 46.875 38.0859 46.875Z" />
<path d="M57.4219 48.0469H59.7656V50.3906H57.4219V48.0469Z" />
<path d="M15.2344 48.0469H17.5781V50.3906H15.2344V48.0469Z" />
</svg>
