<svg viewBox="0 0 75 75"  xmlns="http://www.w3.org/2000/svg">
<path d="M12.8906 49.0917V71.4844C12.8906 71.6383 12.9209 71.7907 12.9798 71.9328C13.0387 72.075 13.125 72.2042 13.2338 72.313C13.3427 72.4218 13.4719 72.5082 13.614 72.5671C13.7562 72.6259 13.9086 72.6563 14.0625 72.6562H60.9375C61.0914 72.6563 61.2438 72.6259 61.386 72.5671C61.5281 72.5082 61.6573 72.4218 61.7662 72.313C61.875 72.2042 61.9613 72.075 62.0202 71.9328C62.0791 71.7907 62.1094 71.6383 62.1094 71.4844V49.0917C62.1092 47.3876 61.6962 45.709 60.9057 44.1993C60.1152 42.6897 58.9707 41.394 57.5702 40.4232L46.7698 32.9381C48.359 30.891 49.2207 28.3728 49.2188 25.7812V9.375C49.2174 8.13223 48.723 6.94075 47.8443 6.06198C46.9655 5.1832 45.774 4.6889 44.5312 4.6875H43.9006C43.4893 3.97541 42.898 3.384 42.1859 2.97263C41.4738 2.56125 40.6661 2.34438 39.8438 2.34375H35.1562C32.6707 2.34657 30.2878 3.33519 28.5302 5.09274C26.7727 6.85028 25.7841 9.23321 25.7812 11.7188V25.7812C25.7793 28.3728 26.641 30.8911 28.2302 32.9381L17.4299 40.4232C16.0293 41.394 14.8849 42.6897 14.0943 44.1993C13.3038 45.7089 12.8908 47.3876 12.8906 49.0917ZM23.4375 39.1112L25.2781 37.8356L27.7938 42.3637L23.4375 43.134V39.1112ZM32.8125 36.5186V37.5C32.8125 37.5958 32.8242 37.6913 32.8475 37.7842L33.9663 42.2595L33.3144 47.4747L27.214 36.494L29.8627 34.6583C30.7479 35.4218 31.7421 36.0488 32.8125 36.5186V36.5186ZM45.1373 34.6583L47.786 36.494L41.6856 47.4747L41.0337 42.2595L42.1525 37.7843C42.1758 37.6913 42.1875 37.5958 42.1875 37.5V36.5186C43.2579 36.0488 44.2521 35.4218 45.1373 34.6583V34.6583ZM36.1907 43.3594H38.8093L39.7575 50.9453L37.5 55.0088L35.2425 50.9453L36.1907 43.3594ZM38.6719 57.7255L42.1764 51.4174L42.1784 51.4172L42.1781 51.4144L45.6657 45.1367L49.9552 49.2931L38.6719 62.4571V57.7255ZM49.7219 37.8356L51.5625 39.1112V43.134L47.2062 42.3637L49.7219 37.8356ZM39.8438 37.3557L38.9288 41.0156H36.0712L35.1562 37.3557V37.2642C36.7029 37.5786 38.2971 37.5786 39.8438 37.2642V37.3557ZM32.8219 51.4144L32.8216 51.4172L32.8236 51.4174L36.3281 57.7255V62.4571L25.0448 49.2931L29.3343 45.1367L32.8219 51.4144ZM59.7656 49.0917V70.3125H38.6719V66.0586L52.4523 49.9814C52.6465 49.7548 52.7469 49.4627 52.7331 49.1646C52.7193 48.8665 52.5923 48.5848 52.378 48.3772L48.9457 45.0515L52.5303 45.6852C52.6989 45.715 52.8719 45.7075 53.0372 45.6633C53.2026 45.619 53.3562 45.5391 53.4874 45.4291C53.6185 45.3191 53.724 45.1817 53.7964 45.0266C53.8687 44.8715 53.9062 44.7024 53.9062 44.5312V40.7355L56.2352 42.3495C57.3245 43.1046 58.2146 44.1124 58.8294 45.2865C59.4442 46.4607 59.7655 47.7663 59.7656 49.0917ZM46.875 9.375V11.2334L46.1885 10.5469C45.7266 10.0829 45.1573 9.74004 44.5312 9.54862V7.03125C45.1526 7.03196 45.7484 7.27912 46.1877 7.7185C46.6271 8.15789 46.8743 8.75362 46.875 9.375ZM35.1562 4.6875H39.8438C40.4651 4.68821 41.0609 4.93537 41.5002 5.37475C41.9396 5.81414 42.1868 6.40987 42.1875 7.03125V9.54862C41.5614 9.74004 40.9922 10.0829 40.5303 10.5469C39.7889 11.2923 38.9071 11.8832 37.9359 12.2855C36.9646 12.6878 35.9232 12.8935 34.8719 12.8906H28.125V11.7188C28.1271 9.85459 28.8686 8.06739 30.1867 6.74923C31.5049 5.43107 33.2921 4.68961 35.1562 4.6875ZM28.125 15.2344H34.8719C36.2311 15.2381 37.5775 14.9722 38.8332 14.452C40.089 13.9319 41.229 13.1678 42.1875 12.2041C42.4983 11.8933 42.9198 11.7188 43.3594 11.7188C43.7989 11.7188 44.2204 11.8933 44.5312 12.2041L46.875 14.5479V25.7812C46.875 28.2677 45.8873 30.6522 44.1291 32.4104C42.371 34.1685 39.9864 35.1562 37.5 35.1562C35.0136 35.1562 32.629 34.1685 30.8709 32.4104C29.1127 30.6522 28.125 28.2677 28.125 25.7812V15.2344ZM18.7649 42.3495L21.0938 40.7355V44.5312C21.0938 44.7024 21.1313 44.8715 21.2036 45.0266C21.276 45.1817 21.3815 45.3191 21.5126 45.4291C21.6438 45.5391 21.7974 45.619 21.9628 45.6633C22.1281 45.7075 22.3011 45.715 22.4697 45.6852L26.0543 45.0515L22.622 48.3772C22.4077 48.5848 22.2807 48.8665 22.2669 49.1646C22.2531 49.4627 22.3535 49.7548 22.5477 49.9814L36.3281 66.0586V70.3125H15.2344V49.0917C15.2345 47.7663 15.5558 46.4607 16.1706 45.2865C16.7855 44.1123 17.6756 43.1046 18.7649 42.3495Z" />
<path d="M35.1562 17.5781H30.4688V19.9219H35.1562V17.5781Z" />
<path d="M35.1562 30.4688H36.3281C37.2602 30.4677 38.1538 30.097 38.8129 29.4379C39.472 28.7788 39.8427 27.8852 39.8438 26.9531V24.6094H37.5V26.9531C37.4996 27.2638 37.3761 27.5617 37.1564 27.7814C36.9367 28.0011 36.6388 28.1246 36.3281 28.125H35.1562V30.4688Z" />
<path d="M32.8125 23.4375C33.4597 23.4375 33.9844 22.9128 33.9844 22.2656C33.9844 21.6184 33.4597 21.0938 32.8125 21.0938C32.1653 21.0938 31.6406 21.6184 31.6406 22.2656C31.6406 22.9128 32.1653 23.4375 32.8125 23.4375Z" />
<path d="M44.5312 17.5781H39.8438V19.9219H44.5312V17.5781Z" />
<path d="M42.1875 23.4375C42.8347 23.4375 43.3594 22.9128 43.3594 22.2656C43.3594 21.6184 42.8347 21.0938 42.1875 21.0938C41.5403 21.0938 41.0156 21.6184 41.0156 22.2656C41.0156 22.9128 41.5403 23.4375 42.1875 23.4375Z" />
</svg>
