<svg viewBox="0 0 75 75"  xmlns="http://www.w3.org/2000/svg">
<path d="M70.3125 2.34375H4.6875C4.06612 2.34446 3.47039 2.59162 3.031 3.031C2.59162 3.47039 2.34446 4.06612 2.34375 4.6875V55.0781C2.34558 56.6316 2.96349 58.1209 4.06194 59.2193C5.16039 60.3178 6.64968 60.9357 8.20312 60.9375H28.3043L29.0855 65.625H25.7812C25.1599 65.6257 24.5641 65.8729 24.1248 66.3123C23.6854 66.7516 23.4382 67.3474 23.4375 67.9688V70.3125C23.4382 70.9339 23.6854 71.5296 24.1248 71.969C24.5641 72.4084 25.1599 72.6555 25.7812 72.6562H49.2188C49.8401 72.6555 50.4359 72.4084 50.8752 71.969C51.3146 71.5296 51.5618 70.9339 51.5625 70.3125V67.9688C51.5618 67.3474 51.3146 66.7516 50.8752 66.3123C50.4359 65.8729 49.8401 65.6257 49.2188 65.625H45.9145L46.6957 60.9375H66.7969C68.3503 60.9357 69.8396 60.3178 70.9381 59.2193C72.0365 58.1209 72.6544 56.6316 72.6562 55.0781V4.6875C72.6555 4.06612 72.4084 3.47039 71.969 3.031C71.5296 2.59162 70.9339 2.34446 70.3125 2.34375ZM70.3125 4.6875V49.2188H67.9688V8.20312C67.9688 8.04922 67.9385 7.89682 67.8796 7.75462C67.8208 7.61242 67.7344 7.48322 67.6256 7.37439C67.5168 7.26557 67.3876 7.17925 67.2454 7.12037C67.1032 7.06149 66.9508 7.03121 66.7969 7.03125H8.20312C8.04922 7.03121 7.89682 7.06149 7.75462 7.12037C7.61242 7.17925 7.48322 7.26557 7.37439 7.37439C7.26557 7.48322 7.17925 7.61242 7.12037 7.75462C7.06149 7.89682 7.03121 8.04922 7.03125 8.20312V49.2188H4.6875V4.6875H70.3125ZM65.625 49.2188H9.375V9.375H65.625V49.2188ZM49.2205 70.3125H25.7812V67.9688H49.2188L49.2205 70.3125ZM43.5385 65.625H31.4615L30.6805 60.9375H44.3195L43.5385 65.625ZM66.7969 58.5938H8.20312C7.27104 58.5927 6.37741 58.222 5.71833 57.5629C5.05924 56.9038 4.68852 56.0102 4.6875 55.0781V51.5625H70.3125V55.0781C70.3115 56.0102 69.9408 56.9038 69.2817 57.5629C68.6226 58.222 67.729 58.5927 66.7969 58.5938Z" />
<path d="M64.4531 63.2812H62.1094C60.5559 63.2831 59.0666 63.901 57.9682 64.9994C56.8697 66.0979 56.2518 67.5872 56.25 69.1406V71.4844C56.25 71.6383 56.2802 71.7907 56.3391 71.9329C56.398 72.0751 56.4843 72.2043 56.5931 72.3131C56.702 72.4219 56.8312 72.5083 56.9734 72.5671C57.1156 72.626 57.268 72.6563 57.4219 72.6562H69.1406C69.2945 72.6563 69.4469 72.626 69.5891 72.5671C69.7313 72.5083 69.8605 72.4219 69.9694 72.3131C70.0782 72.2043 70.1645 72.0751 70.2234 71.9329C70.2823 71.7907 70.3125 71.6383 70.3125 71.4844V69.1406C70.3107 67.5872 69.6928 66.0979 68.5943 64.9994C67.4959 63.901 66.0066 63.2831 64.4531 63.2812ZM67.9688 70.3125H58.5938V69.1406C58.5948 68.2085 58.9655 67.3149 59.6246 66.6558C60.2837 65.9967 61.1773 65.626 62.1094 65.625H64.4531C65.3852 65.626 66.2788 65.9967 66.9379 66.6558C67.597 67.3149 67.9677 68.2085 67.9688 69.1406V70.3125Z" />
<path d="M15.2344 31.6406V35.1563C15.2344 35.356 15.2854 35.5525 15.3827 35.7269C15.48 35.9014 15.6203 36.0481 15.7902 36.1532C15.9601 36.2582 16.154 36.318 16.3536 36.327C16.5532 36.336 16.7517 36.2938 16.9304 36.2045L18.75 35.2947L20.5696 36.2045C20.7483 36.2938 20.9468 36.336 21.1464 36.327C21.346 36.318 21.5399 36.2582 21.7098 36.1532C21.8797 36.0481 22.02 35.9014 22.1173 35.7269C22.2146 35.5525 22.2656 35.356 22.2656 35.1563V31.6406H28.125C28.7464 31.6399 29.3421 31.3928 29.7815 30.9534C30.2209 30.514 30.468 29.9183 30.4688 29.2969V15.2344C30.468 14.613 30.2209 14.0173 29.7815 13.5779C29.3421 13.1385 28.7464 12.8913 28.125 12.8906H15.2344C14.613 12.8913 14.0173 13.1385 13.5779 13.5779C13.1385 14.0173 12.8913 14.613 12.8906 15.2344V29.2969C12.8913 29.9183 13.1385 30.514 13.5779 30.9534C14.0173 31.3928 14.613 31.6399 15.2344 31.6406ZM19.9219 33.26L19.2741 32.9361C19.1114 32.8548 18.9319 32.8125 18.75 32.8125C18.5681 32.8125 18.3886 32.8548 18.2259 32.9361L17.5781 33.26V31.6406H19.9219V33.26ZM15.2344 15.2344H28.125L28.1267 29.2969H15.2344V15.2344Z" />
<path d="M33.9844 14.0625H44.5312V16.4062H33.9844V14.0625Z" />
<path d="M46.875 14.0625H51.5625V16.4062H46.875V14.0625Z" />
<path d="M33.9844 18.75H39.8438V21.0938H33.9844V18.75Z" />
<path d="M42.1875 18.75H46.875V21.0938H42.1875V18.75Z" />
<path d="M33.9844 28.125H45.7031V30.4688H33.9844V28.125Z" />
<path d="M33.9844 32.8125H37.5V35.1562H33.9844V32.8125Z" />
<path d="M39.8438 32.8125H42.1875V35.1562H39.8438V32.8125Z" />
<path d="M33.9844 37.5H36.3281V39.8438H33.9844V37.5Z" />
<path d="M38.6719 37.5H45.7031V39.8438H38.6719V37.5Z" />
<path d="M33.9844 42.1875H39.8438V44.5312H33.9844V42.1875Z" />
<path d="M42.1875 42.1875H45.7031V44.5312H42.1875V42.1875Z" />
<path d="M50.3906 28.125H62.1094V30.4688H50.3906V28.125Z" />
<path d="M50.3906 32.8125H53.9062V35.1562H50.3906V32.8125Z" />
<path d="M56.25 32.8125H58.5938V35.1562H56.25V32.8125Z" />
<path d="M50.3906 37.5H52.7344V39.8438H50.3906V37.5Z" />
<path d="M55.0781 37.5H62.1094V39.8438H55.0781V37.5Z" />
<path d="M50.3906 42.1875H52.7344V44.5312H50.3906V42.1875Z" />
<path d="M55.0781 42.1875H62.1094V44.5312H55.0781V42.1875Z" />
<path d="M14.0625 46.875H29.2969C29.4508 46.875 29.6032 46.8448 29.7454 46.7859C29.8876 46.727 30.0168 46.6407 30.1256 46.5319C30.2344 46.423 30.3208 46.2938 30.3796 46.1516C30.4385 46.0094 30.4688 45.857 30.4688 45.7031V41.0156C30.4688 40.8617 30.4385 40.7093 30.3796 40.5671C30.3208 40.4249 30.2344 40.2957 30.1256 40.1869C30.0168 40.0781 29.8876 39.9917 29.7454 39.9329C29.6032 39.874 29.4508 39.8437 29.2969 39.8438H14.0625C13.9086 39.8437 13.7562 39.874 13.614 39.9329C13.4718 39.9917 13.3426 40.0781 13.2338 40.1869C13.1249 40.2957 13.0386 40.4249 12.9797 40.5671C12.9209 40.7093 12.8906 40.8617 12.8906 41.0156V45.7031C12.8906 45.857 12.9209 46.0094 12.9797 46.1516C13.0386 46.2938 13.1249 46.423 13.2338 46.5319C13.3426 46.6407 13.4718 46.727 13.614 46.7859C13.7562 46.8448 13.9086 46.875 14.0625 46.875ZM28.125 44.5312H25.7812V42.1875H28.125V44.5312ZM15.2344 42.1875H23.4375V44.5312H15.2344V42.1875Z" />
<path d="M19.9219 18.75H23.4375V21.0938H19.9219V18.75Z" />
<path d="M17.5781 23.4375H25.7812V25.7812H17.5781V23.4375Z" />
<path d="M37.5 56.25C38.1472 56.25 38.6719 55.7253 38.6719 55.0781C38.6719 54.4309 38.1472 53.9062 37.5 53.9062C36.8528 53.9062 36.3281 54.4309 36.3281 55.0781C36.3281 55.7253 36.8528 56.25 37.5 56.25Z" />
</svg>
