<svg viewBox="0 0 71 71"  xmlns="http://www.w3.org/2000/svg">
<path d="M69.4844 21.4375H66.693L62.0055 12.0625H65.9688C66.2795 12.0625 66.5776 11.939 66.7974 11.7193C67.0172 11.4995 67.1406 11.2014 67.1406 10.8906V7.37501C67.1406 7.07976 67.0292 6.7954 66.8286 6.57877C66.6279 6.36215 66.353 6.22922 66.0586 6.20657L51.2565 5.06794L50.1901 4.00157C49.0304 2.8419 47.6537 1.92201 46.1386 1.2944C44.6234 0.666787 42.9995 0.343757 41.3595 0.34375C39.7195 0.343743 38.0955 0.66676 36.5804 1.29436C35.0652 1.92195 33.6885 2.84184 32.5288 4.0015L31.4622 5.06794L16.6602 6.20657C16.3658 6.22922 16.0908 6.36215 15.8902 6.57877C15.6896 6.7954 15.5781 7.07976 15.5781 7.37501V10.8906C15.5781 11.2014 15.7016 11.4995 15.9214 11.7193C16.1411 11.939 16.4392 12.0625 16.75 12.0625H20.7133L16.0258 21.4375H13.2344C12.9236 21.4375 12.6255 21.561 12.4057 21.7807C12.186 22.0005 12.0625 22.2986 12.0625 22.6094V23.7813C12.0625 26.5785 13.1737 29.2611 15.1516 31.239C17.1295 33.2169 19.8122 34.3281 22.6094 34.3281C25.4066 34.3281 28.0892 33.2169 30.0671 31.239C32.0451 29.2611 33.1562 26.5785 33.1562 23.7813V22.6094C33.1562 22.2986 33.0328 22.0005 32.813 21.7807C32.5932 21.561 32.2952 21.4375 31.9844 21.4375H29.193L24.5055 12.0625H35.3617L36.6719 14.6828V29.6406C36.672 29.8225 36.7146 30.0018 36.7965 30.1643L36.7956 30.1647C37.0766 30.7301 37.2228 31.353 37.2228 31.9844C37.2228 32.6158 37.0766 33.2386 36.7956 33.8041L36.7965 33.8045C36.7146 33.9669 36.672 34.1463 36.6719 34.3281V43.7031C36.6164 43.7031 36.561 43.7071 36.5061 43.7149L29.6255 44.6979C29.6012 44.5367 29.5434 44.3823 29.4559 44.2447C29.3685 44.1071 29.2532 43.9894 29.1175 43.899C28.9818 43.8086 28.8287 43.7476 28.668 43.7199C28.5073 43.6922 28.3426 43.6984 28.1845 43.7381L24.9531 44.546V41.3594C24.9517 40.1166 24.4574 38.9251 23.5786 38.0464C22.6999 37.1676 21.5084 36.6733 20.2656 36.6719H14.4062C13.1635 36.6733 11.972 37.1676 11.0932 38.0464C10.2145 38.9251 9.72016 40.1166 9.71875 41.3594V55.4219C9.71811 56.2451 9.93571 57.0539 10.3494 57.7656H7.375C5.51084 57.7677 3.72363 58.5092 2.40547 59.8274C1.08731 61.1455 0.345844 62.9327 0.34375 64.7969V69.4844C0.343753 69.7952 0.467219 70.0933 0.686988 70.313C0.906756 70.5328 1.20483 70.6563 1.51562 70.6563H55.4219C55.7327 70.6563 56.0307 70.5328 56.2505 70.313C56.4703 70.0933 56.5937 69.7952 56.5938 69.4844C56.592 67.9309 55.9741 66.4416 54.8756 65.3431C53.7772 64.2447 52.2878 63.6268 50.7344 63.625H50.6165C50.3846 62.5001 49.8282 61.4679 49.0161 60.6558C48.204 59.8436 47.1717 59.2873 46.0469 59.0554V53.0781H65.9688C67.212 53.0781 68.4042 52.5843 69.2833 51.7052C70.1624 50.8261 70.6562 49.6338 70.6562 48.3906C70.6562 47.1474 70.1624 45.9551 69.2833 45.0761C68.4042 44.197 67.212 43.7031 65.9688 43.7031H46.0469V34.3281C46.047 34.1279 45.9956 33.931 45.8975 33.7565L45.8978 33.7563C45.5885 33.217 45.4257 32.6061 45.4257 31.9844C45.4257 31.3627 45.5885 30.7518 45.8978 30.2125L45.8975 30.2123C45.9956 30.0377 46.047 29.8409 46.0469 29.6406V14.6828L47.357 12.0625H58.2133L53.5258 21.4375H50.7344C50.4236 21.4375 50.1255 21.561 49.9057 21.7807C49.686 22.0005 49.5625 22.2986 49.5625 22.6094V23.7813C49.5625 26.5785 50.6737 29.2611 52.6516 31.239C54.6295 33.2169 57.3122 34.3281 60.1094 34.3281C62.9066 34.3281 65.5892 33.2169 67.5671 31.239C69.5451 29.2611 70.6562 26.5785 70.6562 23.7813V22.6094C70.6562 22.2986 70.5328 22.0005 70.313 21.7807C70.0932 21.561 69.7952 21.4375 69.4844 21.4375ZM17.9219 8.46019L32.0742 7.37157C32.3531 7.35014 32.6151 7.22963 32.8129 7.03183L34.1861 5.65883C35.1281 4.7168 36.2464 3.96954 37.4772 3.45972C38.7081 2.94991 40.0272 2.68751 41.3595 2.68751C42.6917 2.68752 44.0109 2.94993 45.2417 3.45976C46.4725 3.9696 47.5908 4.71686 48.5328 5.6589L49.9058 7.03184C50.1036 7.22964 50.3656 7.35015 50.6445 7.37158L64.7969 8.46019V9.71876H47.7041L46.1891 8.20363L46.1889 8.20356C44.908 6.92269 43.1707 6.20312 41.3593 6.20313C39.5478 6.20315 37.8106 6.92274 36.5297 8.20363L35.0146 9.71876H17.9219V8.46019ZM43.2057 33.1563H39.4568C39.5994 32.3815 39.5994 31.5872 39.4568 30.8125H43.2057C43.0489 31.5859 43.0489 32.3829 43.2057 33.1563ZM39.0156 28.4688V15.5781H43.7031V28.4688H39.0156ZM38.568 13.2344L37.3165 10.7314L38.1869 9.86095C39.0283 9.01958 40.1694 8.54689 41.3593 8.54688C42.5492 8.54687 43.6903 9.01952 44.5317 9.86088L45.4022 10.7314L44.1507 13.2344H38.568ZM22.6094 31.9844C20.4345 31.9819 18.3495 31.1169 16.8116 29.579C15.2737 28.0412 14.4087 25.9561 14.4062 23.7813H30.8125C30.81 25.9561 29.945 28.0412 28.4072 29.579C26.8693 31.1169 24.7842 31.9819 22.6094 31.9844ZM18.6461 21.4375L22.6094 13.511L26.5726 21.4375H18.6461ZM36.7551 46.0469H63.625V50.7344H36.7551L29.6406 49.718V47.0632L36.7551 46.0469ZM28.4688 53.0781C28.7487 53.0784 29.0195 52.9781 29.2318 52.7955C29.4441 52.613 29.5838 52.3603 29.6255 52.0834L36.5061 53.0663C36.561 53.0742 36.6164 53.0781 36.6719 53.0781V59.0571C35.9556 59.203 35.2731 59.4818 34.6596 59.8792C34.0063 59.2098 33.2257 58.678 32.3638 58.315C31.5018 57.9521 30.5759 57.7653 29.6406 57.7656H24.3225C24.7362 57.0539 24.9538 56.2451 24.9531 55.4219V52.2353L28.1845 53.0432C28.2775 53.0664 28.3729 53.0781 28.4688 53.0781ZM12.0625 44.875H22.6094V51.9063H12.0625V44.875ZM27.2969 46.3759V50.4054L24.9531 49.8194V46.9619L27.2969 46.3759ZM12.0625 41.3594C12.0632 40.738 12.3104 40.1423 12.7498 39.7029C13.1891 39.2635 13.7849 39.0163 14.4062 39.0156H20.2656C20.887 39.0163 21.4827 39.2635 21.9221 39.7029C22.3615 40.1423 22.6087 40.738 22.6094 41.3594V42.5313H12.0625V41.3594ZM12.0625 55.4219V54.25H22.6094V55.4219C22.6087 56.0433 22.3615 56.639 21.9221 57.0784C21.4827 57.5178 20.887 57.7649 20.2656 57.7656H14.4062C13.7849 57.7649 13.1891 57.5178 12.7498 57.0784C12.3104 56.639 12.0632 56.0433 12.0625 55.4219ZM34.3281 68.3125H2.6875V64.7969C2.68891 63.5541 3.18322 62.3626 4.06199 61.4839C4.94076 60.6051 6.13223 60.1108 7.375 60.1094H29.6406C30.8834 60.1108 32.0749 60.6051 32.9536 61.4839C33.8324 62.3626 34.3267 63.5541 34.3281 64.7969V68.3125ZM54.0492 68.3125H36.6719V65.9688H50.7344C51.4612 65.9696 52.17 66.1953 52.7635 66.6149C53.3569 67.0346 53.806 67.6275 54.0492 68.3125ZM48.1898 63.625H36.5723C36.4664 62.9947 36.2743 62.382 36.0014 61.804C36.5552 61.4624 37.1931 61.2814 37.8438 61.2813H44.875C45.6018 61.2821 46.3106 61.5078 46.9041 61.9274C47.4976 62.3471 47.9467 62.94 48.1898 63.625ZM43.7031 58.9375H39.0156V53.0781H43.7031V58.9375ZM68.3125 48.3906C68.3118 49.012 68.0646 49.6077 67.6252 50.0471C67.1859 50.4865 66.5901 50.7337 65.9688 50.7344V46.0469C66.5901 46.0476 67.1859 46.2948 67.6252 46.7341C68.0646 47.1735 68.3118 47.7693 68.3125 48.3906ZM39.0156 43.7031V35.5H43.7031V43.7031H39.0156ZM60.1094 13.511L64.0726 21.4375H56.1461L60.1094 13.511ZM60.1094 31.9844C57.9345 31.9819 55.8494 31.1169 54.3116 29.579C52.7737 28.0412 51.9087 25.9561 51.9062 23.7813H68.3125C68.3101 25.9561 67.445 28.0412 65.9072 29.579C64.3693 31.1169 62.2842 31.9819 60.1094 31.9844Z" />
</svg>
