<svg viewBox="0 0 75 75"  xmlns="http://www.w3.org/2000/svg">
<path d="M71.4844 18.7501H51.6458C46.4211 18.7354 41.3783 20.6668 37.5 24.1676C33.6217 20.6668 28.5789 18.7354 23.3542 18.7501H3.51562C3.20483 18.7501 2.90677 18.8736 2.687 19.0933C2.46724 19.3131 2.34377 19.6112 2.34375 19.922V41.0157C2.34377 41.3265 2.46724 41.6246 2.687 41.8443C2.90677 42.0641 3.20483 42.1876 3.51562 42.1876H11.3077L15.9708 45.918C15.4845 46.8207 15.322 47.8627 15.5103 48.8706C15.6986 49.8785 16.2265 50.7915 17.006 51.4576C17.7855 52.1237 18.7696 52.5028 19.7945 52.5317C20.8195 52.5606 21.8234 52.2376 22.6392 51.6165C22.8532 52.3681 23.2597 53.0508 23.8186 53.597C24.3775 54.1432 25.0694 54.534 25.8257 54.7307C26.582 54.9273 27.3766 54.9231 28.1308 54.7183C28.885 54.5135 29.5726 54.1153 30.1256 53.5632L30.8528 52.8359C31.0737 53.5817 31.4846 54.2572 32.0452 54.7963C32.6059 55.3353 33.297 55.7194 34.0508 55.9109C34.8046 56.1024 35.5953 56.0947 36.3452 55.8886C37.0952 55.6824 37.7787 55.2849 38.3287 54.735L39.0559 54.0078C39.2768 54.7535 39.6877 55.4291 40.2484 55.9681C40.809 56.5072 41.5001 56.8913 42.2539 57.0828C43.0078 57.2743 43.7984 57.2666 44.5484 57.0605C45.2983 56.8543 45.9818 56.4568 46.5318 55.9069L47.7037 54.735C48.3155 54.1258 48.7372 53.352 48.9175 52.5077L51.3389 51.7006C52.256 51.3957 53.1019 50.9087 53.826 50.2687C54.5501 49.6286 55.1373 48.8489 55.5525 47.9762L63.6567 42.1876H71.4844C71.7952 42.1876 72.0932 42.0641 72.313 41.8443C72.5328 41.6246 72.6562 41.3265 72.6562 41.0157V19.922C72.6562 19.6112 72.5328 19.3131 72.313 19.0933C72.0932 18.8736 71.7952 18.7501 71.4844 18.7501ZM4.6875 21.0938H10.5469V39.8438H4.6875V21.0938ZM18.4068 49.562C18.0056 49.1599 17.7803 48.615 17.7803 48.047C17.7803 47.4789 18.0056 46.934 18.4068 46.5319L24.2662 40.6725C24.6681 40.2712 25.2129 40.0459 25.7809 40.0461C26.3489 40.0464 26.8935 40.2721 27.2951 40.6737C27.6967 41.0753 27.9225 41.62 27.9227 42.1879C27.9229 42.7559 27.6976 43.3007 27.2963 43.7026L21.4369 49.562C21.0348 49.9632 20.4899 50.1886 19.9219 50.1886C19.3538 50.1886 18.8089 49.9632 18.4068 49.562ZM28.4682 51.9058C28.0663 52.3071 27.5214 52.5324 26.9535 52.5321C26.3855 52.5319 25.8409 52.3062 25.4392 51.9046C25.0376 51.503 24.8119 50.9583 24.8117 50.3904C24.8115 49.8224 25.0368 49.2776 25.4381 48.8757L28.9537 45.36L30.1256 44.1882C30.5275 43.7868 31.0723 43.5616 31.6403 43.5618C32.2082 43.562 32.7529 43.7877 33.1545 44.1893C33.5561 44.5909 33.7818 45.1356 33.7821 45.7036C33.7823 46.2715 33.557 46.8163 33.1557 47.2183L28.4682 51.9058ZM36.6713 53.0776C36.4724 53.2769 36.2362 53.4349 35.9762 53.5428C35.7161 53.6507 35.4374 53.7063 35.1559 53.7064C34.8744 53.7065 34.5956 53.6511 34.3355 53.5434C34.0754 53.4357 33.8391 53.2779 33.64 53.0788C33.441 52.8798 33.2831 52.6434 33.1754 52.3833C33.0677 52.1232 33.0124 51.8444 33.0125 51.5629C33.0126 51.2814 33.0682 51.0027 33.176 50.7427C33.2839 50.4826 33.442 50.2464 33.6412 50.0475L37.1568 46.5319C37.3557 46.3327 37.5919 46.1746 37.852 46.0667C38.112 45.9589 38.3907 45.9033 38.6722 45.9032C38.9537 45.9031 39.2325 45.9584 39.4926 46.0661C39.7527 46.1738 39.989 46.3317 40.1881 46.5307C40.3872 46.7298 40.545 46.9661 40.6527 47.2262C40.7604 47.4863 40.8158 47.7651 40.8157 48.0466C40.8156 48.3281 40.76 48.6069 40.6521 48.8669C40.5442 49.1269 40.3861 49.3631 40.1869 49.562L36.6713 53.0776ZM46.0463 53.0776L44.8744 54.2495C44.4725 54.6508 43.9277 54.8761 43.3597 54.8759C42.7918 54.8757 42.2471 54.65 41.8455 54.2483C41.4439 53.8467 41.2182 53.3021 41.2179 52.7341C41.2177 52.1661 41.443 51.6213 41.8443 51.2194L43.0162 50.0475C43.4181 49.6462 43.9629 49.4209 44.5309 49.4211C45.0989 49.4214 45.6435 49.6471 46.0451 50.0487C46.4467 50.4503 46.6725 50.995 46.6727 51.5629C46.6729 52.1309 46.4476 52.6757 46.0463 53.0776ZM50.5978 49.477L48.7695 50.0864C48.3796 48.9704 47.5655 48.0531 46.5036 47.5334C45.4418 47.0137 44.2179 46.9335 43.0974 47.3103C42.9705 46.5477 42.6487 45.8307 42.1631 45.2291C41.6776 44.6274 41.0448 44.1615 40.3261 43.8764C39.6074 43.5914 38.8273 43.4969 38.0613 43.6022C37.2954 43.7075 36.5697 44.009 35.9545 44.4774C35.7891 43.8929 35.5066 43.3482 35.1241 42.8763C34.7417 42.4044 34.2672 42.0152 33.7296 41.7323C33.1921 41.4495 32.6026 41.2789 31.9971 41.2309C31.3915 41.183 30.7825 41.2587 30.2071 41.4534C30.0722 40.6399 29.7157 39.8793 29.1767 39.2552C28.6377 38.6311 27.9372 38.1676 27.152 37.9156C26.3668 37.6637 25.5274 37.633 24.7259 37.827C23.9244 38.0209 23.1919 38.432 22.6088 39.0151L17.4911 44.1329L12.8906 40.4525V21.0938H23.3542C27.9463 21.0811 32.3823 22.759 35.8164 25.8075L30.5112 31.1127C29.8293 31.7946 29.4123 32.6969 29.3348 33.6582C29.2573 34.6194 29.5244 35.5769 30.0883 36.3592C30.6522 37.1415 31.4761 37.6976 32.4125 37.9281C33.3489 38.1585 34.3368 38.0483 35.1993 37.617L42.4642 33.9845H44.0857L52.2823 41.2703C52.9168 41.8343 53.3917 42.5553 53.6593 43.3608C53.927 44.1663 53.9781 45.0281 53.8074 45.8596C53.6367 46.6912 53.2503 47.4631 52.6869 48.0981C52.1236 48.733 51.4031 49.2086 50.5978 49.477ZM62.1094 40.4126L56.2424 44.6033C56.2043 43.6377 55.9718 42.6897 55.5589 41.8161C55.146 40.9424 54.5611 40.161 53.8393 39.5185L47.4396 33.8299C50.205 33.4073 52.762 32.109 54.735 30.1257L53.0776 28.4683C52.0742 29.4772 50.8806 30.2771 49.5659 30.8217C48.2513 31.3662 46.8417 31.6446 45.4187 31.6407H42.1875C42.0056 31.6407 41.8261 31.6831 41.6634 31.7644L34.151 35.5207C33.7863 35.703 33.3685 35.7496 32.9726 35.6521C32.5766 35.5546 32.2283 35.3195 31.9898 34.9886C31.7514 34.6578 31.6385 34.253 31.6712 33.8465C31.704 33.44 31.8803 33.0585 32.1686 32.7701L38.3287 26.61C40.0734 24.8557 42.1488 23.4648 44.4347 22.518C46.7206 21.5711 49.1715 21.0871 51.6458 21.0938H62.1094V40.4126ZM70.3125 39.8438H64.4531V21.0938H70.3125V39.8438Z" />
</svg>
