<svg viewBox="0 0 100 95" xmlns="http://www.w3.org/2000/svg">
<path d="M90.436 20.8327H74.9529V16.3955C74.9529 15.5784 74.2906 14.9161 73.4735 14.9161H72.1918V12.8448C72.1918 5.93861 66.5727 0.320312 59.6666 0.320312H39.943C33.0369 0.320312 27.4186 5.93861 27.4186 12.8448V14.9161H26.1361C25.319 14.9161 24.6567 15.5784 24.6567 16.3955V20.8335H19.011C18.1939 20.8335 17.5316 21.4957 17.5316 22.3121C17.5316 23.1292 18.1939 23.7914 19.011 23.7914H90.436C93.9707 23.7914 96.8462 26.6677 96.8462 30.2024V43.2197C96.8462 46.2768 94.6688 48.9219 91.6849 49.5079L55.98 56.1233H43.6288L7.93993 49.5102C4.94081 48.9219 2.76337 46.2768 2.76337 43.2197V30.2017C2.76337 26.667 5.6389 23.7914 9.1736 23.7914H12.1445C12.9616 23.7914 13.6238 23.1292 13.6238 22.3121C13.6238 21.495 12.9616 20.8327 12.1445 20.8327H9.1736C4.00773 20.8327 -0.195312 25.0358 -0.195312 30.2017V43.2197C-0.195312 46.3218 1.33972 49.1325 3.74909 50.8507V84.6398C3.74909 89.8057 7.95213 94.0087 13.118 94.0087H71.2053C72.0224 94.0087 72.6846 93.3465 72.6846 92.5294C72.6846 91.7122 72.0224 91.05 71.2053 91.05H13.118C9.5833 91.05 6.70778 88.1745 6.70778 84.6398V52.2552C6.93056 52.3163 7.15639 52.3712 7.38603 52.4162L42.0136 58.8325V74.3675C42.0136 75.0145 42.434 75.586 43.052 75.779L49.3638 77.752C49.5072 77.7962 49.656 77.8191 49.8048 77.8191C49.9536 77.8191 50.1023 77.7962 50.2458 77.752L56.5576 75.779C57.1756 75.586 57.5959 75.0145 57.5959 74.3675V58.8325L92.2388 52.4139C92.4631 52.3697 92.6836 52.3155 92.9018 52.2568V84.6398C92.9018 88.1753 90.0263 91.05 86.4916 91.05H78.1252C77.308 91.05 76.6458 91.7122 76.6458 92.5294C76.6458 93.3465 77.308 94.0087 78.1252 94.0087H86.4916C91.6574 94.0087 95.8597 89.8057 95.8597 84.6398V50.8529C98.2676 49.1363 99.8049 46.3234 99.8049 43.2197V30.2017C99.8049 25.0358 95.6018 20.8327 90.436 20.8327ZM30.3765 12.8448C30.3765 7.56978 34.668 3.279 39.943 3.279H59.6666C64.9415 3.279 69.2331 7.56978 69.2331 12.8448V14.9161H65.88V12.8448C65.88 9.41915 63.0922 6.63212 59.6666 6.63212H56.3874C55.5703 6.63212 54.9081 7.29436 54.9081 8.1107C54.9081 8.92781 55.5703 9.59004 56.3874 9.59004H59.6666C61.461 9.59004 62.9213 11.0503 62.9213 12.8448V14.9161H61.6388C60.8217 14.9161 60.1594 15.5784 60.1594 16.3955V20.8335H39.4494V16.3955C39.4494 15.5784 38.7872 14.9161 37.97 14.9161H36.6883V12.8448C36.6883 11.0503 38.1486 9.59004 39.943 9.59004H49.5088C50.3259 9.59004 50.9881 8.92781 50.9881 8.1107C50.9881 7.29436 50.3259 6.63212 49.5088 6.63212H39.943C36.5174 6.63212 33.7296 9.41915 33.7296 12.8448V14.9161H30.3765V12.8448ZM27.6154 20.8327V17.8741H36.4915V20.8327H27.6154ZM63.1181 20.8327V17.8741H71.9942V20.8327H63.1181ZM44.9723 59.0813H54.6373V64.801H44.9723V59.0813ZM54.6373 73.2796L49.8048 74.7902L44.9723 73.2796V67.7597H54.6373V73.2796Z"/>
</svg>
