<svg viewBox="0 0 100 66"  xmlns="http://www.w3.org/2000/svg">
<path d="M98.0469 6.33206H82.0312V2.19788C82.0312 1.11917 81.1566 0.244751 80.0781 0.244751H37.8906C36.8121 0.244751 35.9375 1.11917 35.9375 2.19788C35.9375 3.27659 36.8121 4.151 37.8906 4.151H78.125V19.1248C78.125 32.2787 71.1021 44.5041 59.7621 51.1561H22.2691C10.9291 44.5043 3.90625 32.2787 3.90625 19.125V4.1512H16.9922C18.0707 4.1512 18.9453 3.27678 18.9453 2.19807C18.9453 1.11936 18.0707 0.244948 16.9922 0.244948H1.95312C0.874609 0.244948 0 1.11936 0 2.19807V19.125C0 26.5078 1.98438 33.7469 5.73867 40.0592C8.27051 44.3164 11.5557 48.0758 15.4027 51.1563H1.95312C0.874609 51.1563 0 52.0307 0 53.1094C0 60.2174 5.78262 66 12.8906 66H73.8281C80.9361 66 86.7188 60.2174 86.7188 53.1094C86.7188 52.0307 85.8441 51.1563 84.7656 51.1563H66.6285C70.1693 48.3211 73.2324 44.9096 75.6719 41.0651H81.185C91.5596 41.0651 100 32.6246 100 22.25V8.28518C100 7.20647 99.1256 6.33206 98.0469 6.33206ZM82.5986 55.0625C81.7045 59.0805 78.1115 62.0938 73.8281 62.0938H12.8906C8.60723 62.0938 5.01445 59.0805 4.12012 55.0625H21.7459H60.2854H82.5986ZM82.0312 19.125V18.0508H88.2812V22.25C88.2812 26.1629 85.0978 29.3463 81.185 29.3463H80.7414C81.5939 26.0248 82.0312 22.5908 82.0312 19.125ZM96.0938 22.25C96.0938 30.4707 89.4057 37.1588 81.185 37.1588H77.8607C78.4844 35.8852 79.0414 34.5813 79.5281 33.2526H81.185C87.252 33.2526 92.1875 28.3168 92.1875 22.25V16.0977C92.1875 15.019 91.3129 14.1446 90.2344 14.1446H82.0312V10.2383H96.0938V22.25Z" />
</svg>
