<svg viewBox="0 0 75 75"  xmlns="http://www.w3.org/2000/svg">
<path d="M72.6502 71.3654L66.7909 13.9436C66.7614 13.6549 66.6259 13.3873 66.4105 13.1928C66.1952 12.9983 65.9153 12.8906 65.6251 12.8906H63.2813V11.7188C63.2818 9.63992 62.5912 7.61991 61.3181 5.97651C60.045 4.33311 58.2616 3.15959 56.2486 2.64058C54.2356 2.12156 52.1072 2.28649 50.1982 3.10944C48.2892 3.93238 46.7079 5.36662 45.7032 7.18654C44.8938 5.71959 43.7058 4.49654 42.2631 3.64479C40.8203 2.79303 39.1755 2.34376 37.5001 2.34376C35.8246 2.34376 34.1799 2.79303 32.7371 3.64479C31.2943 4.49654 30.1064 5.71959 29.2969 7.18654C28.2922 5.36662 26.711 3.93238 24.802 3.10944C22.8929 2.28649 20.7645 2.12156 18.7515 2.64058C16.7385 3.15959 14.9552 4.33311 13.6821 5.97651C12.409 7.61991 11.7183 9.63992 11.7188 11.7188V12.8906H9.37507C9.08487 12.8906 8.80499 12.9983 8.58962 13.1928C8.37426 13.3873 8.23873 13.6549 8.20928 13.9436L2.3499 71.3654C2.33325 71.5285 2.351 71.6933 2.40201 71.8491C2.45301 72.0049 2.53614 72.1482 2.64601 72.2699C2.75588 72.3915 2.89005 72.4888 3.03986 72.5553C3.18967 72.6219 3.35177 72.6563 3.5157 72.6563H71.4845V72.6562L71.4847 72.6563C71.6486 72.6562 71.8106 72.6218 71.9604 72.5552C72.1102 72.4887 72.2444 72.3914 72.3542 72.2698C72.4641 72.1481 72.5472 72.0048 72.5981 71.849C72.6491 71.6932 72.6669 71.5285 72.6502 71.3654H72.6502ZM70.021 68.6865L64.044 63.5634C63.8317 63.3811 63.5611 63.2811 63.2813 63.2813V63.2813H57.0932L61.9959 15.2344H64.5667L70.021 68.6865ZM56.854 65.625H60.1134L56.5416 68.6865L56.854 65.625ZM63.2813 65.9966L68.3165 70.3125H58.2461L63.2813 65.9966ZM53.9063 4.68751C55.7705 4.68961 57.5577 5.43108 58.8758 6.74924C60.194 8.0674 60.9355 9.8546 60.9376 11.7188V12.8906H58.5938V11.7188C58.5938 10.4756 58.1 9.28327 57.2209 8.40419C56.3418 7.52512 55.1495 7.03126 53.9063 7.03126C52.6631 7.03126 51.4708 7.52512 50.5918 8.40419C49.7127 9.28327 49.2188 10.4756 49.2188 11.7188V16.4063C49.2201 17.4452 49.566 18.4543 50.2021 19.2757C50.8383 20.0971 51.7289 20.6843 52.7344 20.9455V23.3399C51.0969 23.0608 49.6108 22.2118 48.5386 20.9431C47.4664 19.6743 46.8772 18.0674 46.8751 16.4063V11.7188C46.8772 9.8546 47.6186 8.0674 48.9368 6.74924C50.255 5.43108 52.0422 4.68961 53.9063 4.68751ZM51.5626 12.8906V11.7188C51.5626 11.0972 51.8095 10.501 52.249 10.0615C52.6886 9.62194 53.2847 9.37501 53.9063 9.37501C54.5279 9.37501 55.1241 9.62194 55.5636 10.0615C56.0031 10.501 56.2501 11.0972 56.2501 11.7188V12.8906H51.5626ZM37.5001 4.68751C39.3642 4.68961 41.1514 5.43108 42.4696 6.74924C43.7878 8.0674 44.5292 9.8546 44.5313 11.7188V12.8906H42.1876V11.7188C42.1876 10.4756 41.6937 9.28327 40.8146 8.40419C39.9356 7.52512 38.7433 7.03126 37.5001 7.03126C36.2569 7.03126 35.0646 7.52512 34.1855 8.40419C33.3064 9.28327 32.8126 10.4756 32.8126 11.7188V16.4063C32.8139 17.4452 33.1597 18.4543 33.7959 19.2757C34.432 20.0971 35.3226 20.6843 36.3282 20.9455V23.3399C34.6907 23.0608 33.2045 22.2118 32.1324 20.9431C31.0602 19.6743 30.471 18.0674 30.4688 16.4063V11.7188C30.4709 9.8546 31.2124 8.0674 32.5306 6.74924C33.8487 5.43108 35.6359 4.68961 37.5001 4.68751ZM35.1563 12.8906V11.7188C35.1563 11.0972 35.4033 10.501 35.8428 10.0615C36.2823 9.62194 36.8785 9.37501 37.5001 9.37501C38.1217 9.37501 38.7178 9.62194 39.1574 10.0615C39.5969 10.501 39.8438 11.0972 39.8438 11.7188V12.8906H35.1563ZM14.0626 11.7188C14.0626 9.85395 14.8034 8.06553 16.122 6.74691C17.4406 5.4283 19.229 4.68751 21.0938 4.68751C22.9586 4.68751 24.7471 5.4283 26.0657 6.74691C27.3843 8.06553 28.1251 9.85395 28.1251 11.7188V12.8906H25.7813V11.7188C25.7813 10.4756 25.2875 9.28327 24.4084 8.40419C23.5293 7.52512 22.337 7.03126 21.0938 7.03126C19.8506 7.03126 18.6583 7.52512 17.7793 8.40419C16.9002 9.28327 16.4063 10.4756 16.4063 11.7188V16.4063C16.4076 17.4452 16.7535 18.4543 17.3896 19.2757C18.0258 20.0971 18.9164 20.6843 19.9219 20.9455V23.3399C18.2844 23.0608 16.7983 22.2118 15.7261 20.9431C14.6539 19.6743 14.0647 18.0674 14.0626 16.4063V11.7188ZM18.7501 12.8906V11.7188C18.7501 11.0972 18.997 10.501 19.4365 10.0615C19.8761 9.62194 20.4722 9.37501 21.0938 9.37501C21.7154 9.37501 22.3116 9.62194 22.7511 10.0615C23.1906 10.501 23.4376 11.0972 23.4376 11.7188V12.8906H18.7501ZM4.81324 70.3125L10.4334 15.2344H11.7188V16.4063C11.7216 18.8918 12.7103 21.2747 14.4678 23.0323C16.2254 24.7898 18.6083 25.7784 21.0938 25.7813C21.2477 25.7813 21.4001 25.7509 21.5423 25.6921C21.6845 25.6332 21.8137 25.5469 21.9225 25.438C22.0313 25.3292 22.1176 25.2 22.1765 25.0578C22.2354 24.9157 22.2657 24.7633 22.2657 24.6094V19.9219C22.2657 19.768 22.2354 19.6156 22.1765 19.4734C22.1176 19.3312 22.0313 19.202 21.9225 19.0932C21.8137 18.9844 21.6845 18.8981 21.5423 18.8392C21.4001 18.7803 21.2477 18.75 21.0938 18.75C20.4724 18.7493 19.8767 18.5021 19.4373 18.0628C18.9979 17.6234 18.7508 17.0276 18.7501 16.4063V15.2344H28.1251V16.4063C28.1279 18.8918 29.1165 21.2747 30.8741 23.0323C32.6316 24.7898 35.0145 25.7784 37.5001 25.7813C37.654 25.7813 37.8064 25.7509 37.9485 25.6921C38.0907 25.6332 38.2199 25.5469 38.3287 25.438C38.4375 25.3292 38.5239 25.2 38.5828 25.0578C38.6416 24.9157 38.672 24.7633 38.6719 24.6094V19.9219C38.672 19.768 38.6416 19.6156 38.5828 19.4734C38.5239 19.3312 38.4375 19.202 38.3287 19.0932C38.2199 18.9844 38.0907 18.8981 37.9485 18.8392C37.8064 18.7803 37.654 18.75 37.5001 18.75C36.8787 18.7493 36.283 18.5021 35.8436 18.0628C35.4042 17.6234 35.157 17.0276 35.1563 16.4063V15.2344H44.5313V16.4063C44.5341 18.8918 45.5228 21.2747 47.2803 23.0323C49.0379 24.7898 51.4208 25.7784 53.9063 25.7813C54.0602 25.7813 54.2126 25.7509 54.3548 25.6921C54.497 25.6332 54.6262 25.5469 54.735 25.438C54.8438 25.3292 54.9301 25.2 54.989 25.0578C55.0479 24.9157 55.0782 24.7633 55.0782 24.6094V19.9219C55.0782 19.768 55.0479 19.6156 54.989 19.4734C54.9301 19.3312 54.8438 19.202 54.735 19.0932C54.6262 18.9844 54.497 18.8981 54.3548 18.8392C54.2126 18.7803 54.0602 18.75 53.9063 18.75C53.2849 18.7493 52.6892 18.5021 52.2498 18.0628C51.8104 17.6234 51.5633 17.0276 51.5626 16.4063V15.2344H59.64L54.0198 70.3125H4.81324Z" />
<path d="M37.5 28.125H28.125C27.9711 28.125 27.8187 28.1553 27.6765 28.2142C27.5344 28.2731 27.4052 28.3594 27.2963 28.4682C27.1875 28.577 27.1012 28.7062 27.0423 28.8484C26.9834 28.9906 26.9531 29.143 26.9531 29.2969V38.6719C26.9531 38.8258 26.9834 38.9782 27.0423 39.1203C27.1012 39.2625 27.1875 39.3917 27.2963 39.5005C27.4052 39.6093 27.5344 39.6957 27.6765 39.7546C27.8187 39.8134 27.9711 39.8438 28.125 39.8437H37.5C37.6539 39.8438 37.8063 39.8134 37.9485 39.7546C38.0906 39.6957 38.2198 39.6093 38.3287 39.5005C38.4375 39.3917 38.5238 39.2625 38.5827 39.1203C38.6416 38.9782 38.6719 38.8258 38.6719 38.6719V29.2969C38.6719 29.143 38.6416 28.9906 38.5827 28.8484C38.5238 28.7062 38.4375 28.577 38.3287 28.4682C38.2198 28.3594 38.0906 28.2731 37.9485 28.2142C37.8063 28.1553 37.6539 28.125 37.5 28.125ZM36.3281 37.5H29.2969V30.4687H36.3281V37.5Z" />
<path d="M51.5625 28.125H42.1875C42.0336 28.125 41.8812 28.1553 41.739 28.2142C41.5969 28.2731 41.4677 28.3594 41.3588 28.4682C41.25 28.577 41.1637 28.7062 41.1048 28.8484C41.0459 28.9906 41.0156 29.143 41.0156 29.2969V38.6719C41.0156 38.8258 41.0459 38.9782 41.1048 39.1203C41.1637 39.2625 41.25 39.3917 41.3588 39.5005C41.4677 39.6093 41.5969 39.6957 41.739 39.7546C41.8812 39.8134 42.0336 39.8438 42.1875 39.8437H51.5625C51.7164 39.8438 51.8688 39.8134 52.011 39.7546C52.1531 39.6957 52.2823 39.6093 52.3912 39.5005C52.5 39.3917 52.5863 39.2625 52.6452 39.1203C52.7041 38.9782 52.7344 38.8258 52.7344 38.6719V29.2969C52.7344 29.143 52.7041 28.9906 52.6452 28.8484C52.5863 28.7062 52.5 28.577 52.3912 28.4682C52.2823 28.3594 52.1531 28.2731 52.011 28.2142C51.8688 28.1553 51.7164 28.125 51.5625 28.125ZM50.3906 37.5H43.3594V30.4687H50.3906V37.5Z" />
<path d="M21.0938 42.1875H11.7188C11.5649 42.1875 11.4125 42.2178 11.2703 42.2767C11.1281 42.3356 10.9989 42.4219 10.8901 42.5307C10.7813 42.6395 10.695 42.7687 10.6361 42.9109C10.5772 43.0531 10.5469 43.2055 10.5469 43.3594V52.7344C10.5469 52.8883 10.5772 53.0407 10.6361 53.1828C10.695 53.325 10.7813 53.4542 10.8901 53.563C10.9989 53.6718 11.1281 53.7582 11.2703 53.8171C11.4125 53.8759 11.5649 53.9063 11.7188 53.9062H21.0938C21.2476 53.9063 21.4 53.8759 21.5422 53.8171C21.6844 53.7582 21.8136 53.6718 21.9224 53.563C22.0312 53.4542 22.1175 53.325 22.1764 53.1828C22.2353 53.0407 22.2656 52.8883 22.2656 52.7344V43.3594C22.2656 43.2055 22.2353 43.0531 22.1764 42.9109C22.1175 42.7687 22.0312 42.6395 21.9224 42.5307C21.8136 42.4219 21.6844 42.3356 21.5422 42.2767C21.4 42.2178 21.2476 42.1875 21.0938 42.1875ZM19.9219 51.5625H12.8906V44.5312H19.9219V51.5625Z" />
<path d="M35.1562 42.1875H25.7812C25.6274 42.1875 25.475 42.2178 25.3328 42.2767C25.1906 42.3356 25.0614 42.4219 24.9526 42.5307C24.8438 42.6395 24.7575 42.7687 24.6986 42.9109C24.6397 43.0531 24.6094 43.2055 24.6094 43.3594V52.7344C24.6094 52.8883 24.6397 53.0407 24.6986 53.1828C24.7575 53.325 24.8438 53.4542 24.9526 53.563C25.0614 53.6718 25.1906 53.7582 25.3328 53.8171C25.475 53.8759 25.6274 53.9063 25.7812 53.9062H35.1562C35.3101 53.9063 35.4625 53.8759 35.6047 53.8171C35.7469 53.7582 35.8761 53.6718 35.9849 53.563C36.0937 53.4542 36.18 53.325 36.2389 53.1828C36.2978 53.0407 36.3281 52.8883 36.3281 52.7344V43.3594C36.3281 43.2055 36.2978 43.0531 36.2389 42.9109C36.18 42.7687 36.0937 42.6395 35.9849 42.5307C35.8761 42.4219 35.7469 42.3356 35.6047 42.2767C35.4625 42.2178 35.3101 42.1875 35.1562 42.1875ZM33.9844 51.5625H26.9531V44.5312H33.9844V51.5625Z" />
<path d="M19.9219 56.25H10.5469C10.393 56.25 10.2406 56.2803 10.0984 56.3392C9.95623 56.3981 9.82704 56.4844 9.71822 56.5932C9.6094 56.702 9.52309 56.8312 9.46419 56.9734C9.4053 57.1156 9.375 57.268 9.375 57.4219V66.7969C9.375 66.9508 9.4053 67.1032 9.46419 67.2453C9.52309 67.3875 9.6094 67.5167 9.71822 67.6255C9.82704 67.7343 9.95623 67.8207 10.0984 67.8796C10.2406 67.9384 10.393 67.9688 10.5469 67.9688H19.9219C20.0758 67.9688 20.2282 67.9384 20.3703 67.8796C20.5125 67.8207 20.6417 67.7343 20.7505 67.6255C20.8593 67.5167 20.9457 67.3875 21.0046 67.2453C21.0634 67.1032 21.0938 66.9508 21.0938 66.7969V57.4219C21.0938 57.268 21.0634 57.1156 21.0046 56.9734C20.9457 56.8312 20.8593 56.702 20.7505 56.5932C20.6417 56.4844 20.5125 56.3981 20.3703 56.3392C20.2282 56.2803 20.0758 56.25 19.9219 56.25ZM18.75 65.625H11.7188V58.5938H18.75V65.625Z" />
<path d="M33.9844 56.25H24.6094C24.4555 56.25 24.3031 56.2803 24.1609 56.3392C24.0187 56.3981 23.8895 56.4844 23.7807 56.5932C23.6719 56.702 23.5856 56.8312 23.5267 56.9734C23.4678 57.1156 23.4375 57.268 23.4375 57.4219V66.7969C23.4375 66.9508 23.4678 67.1032 23.5267 67.2453C23.5856 67.3875 23.6719 67.5167 23.7807 67.6255C23.8895 67.7343 24.0187 67.8207 24.1609 67.8796C24.3031 67.9384 24.4555 67.9688 24.6094 67.9688H33.9844C34.1383 67.9688 34.2907 67.9384 34.4328 67.8796C34.575 67.8207 34.7042 67.7343 34.813 67.6255C34.9218 67.5167 35.0082 67.3875 35.0671 67.2453C35.1259 67.1032 35.1563 66.9508 35.1562 66.7969V57.4219C35.1563 57.268 35.1259 57.1156 35.0671 56.9734C35.0082 56.8312 34.9218 56.702 34.813 56.5932C34.7042 56.4844 34.575 56.3981 34.4328 56.3392C34.2907 56.2803 34.1383 56.25 33.9844 56.25ZM32.8125 65.625H25.7812V58.5938H32.8125V65.625Z" />
<path d="M48.3902 42.5308L44.5314 46.3897L40.6725 42.5308L39.0152 44.1881L42.8742 48.0469L39.0152 51.9058L40.6725 53.5631L44.5314 49.7041L48.3902 53.5631L50.0475 51.9058L46.1886 48.0469L50.0475 44.1881L48.3902 42.5308Z" />
</svg>
