<svg viewBox="0 0 100 100"  xmlns="http://www.w3.org/2000/svg">
<g clip-path="url(#clip0)">
<path d="M44.9936 65.3069C45.7558 64.5432 45.7558 63.3064 44.9936 62.5427C44.2299 61.7813 42.9939 61.7813 42.2302 62.5427C41.4681 63.3064 41.4681 64.5432 42.2302 65.3069C42.9939 66.0683 44.2299 66.0683 44.9936 65.3069Z" />
<path d="M45.7047 19.3367V23.2429C45.7047 29.7172 50.9491 34.9617 57.4234 34.9617C63.8855 34.9617 69.1429 29.705 69.1429 23.2429V19.3367C70.2217 19.3367 71.096 18.4623 71.096 17.3835C71.096 16.3047 70.2217 15.4304 69.1429 15.4304H65.2367C64.1579 15.4304 63.2835 16.3047 63.2835 17.3835C63.2835 18.4623 64.1579 19.3367 65.2367 19.3367V23.2429C65.2367 27.5505 61.7317 31.0554 57.4234 31.0554C53.109 31.0554 49.6109 27.5589 49.6109 23.2429V19.3367C50.6897 19.3367 51.564 18.4623 51.564 17.3835C51.564 16.3047 50.6897 15.4304 49.6109 15.4304H45.7047C44.6259 15.4304 43.7515 16.3047 43.7515 17.3835C43.7515 18.4623 44.6259 19.3367 45.7047 19.3367Z" />
<path d="M22.6989 95.887C23.0804 96.2677 23.5794 96.4577 24.0791 96.4577C24.5788 96.4577 25.0786 96.2669 25.46 95.8862L31.4575 89.8888C33.4114 87.9364 34.3521 85.2623 34.0805 82.56L36.2312 80.4832C37.9379 78.8383 40.1817 77.932 42.5483 77.932H68.264C72.8706 77.932 77.2247 76.1627 80.5237 72.95C80.5725 72.9027 80.6183 72.8531 80.6617 72.8004L98.159 51.7891C100.939 48.4993 100.523 43.56 97.2305 40.7768C93.959 38.0196 89.0564 38.4163 86.2678 41.6512L84.378 43.6058V5.46875C84.378 4.38995 83.5029 3.51562 82.4249 3.51562H32.2273C31.1493 3.51562 30.2742 4.38995 30.2742 5.46875V49.2287C22.7104 50.8163 16.7114 55.5115 13.4803 62.3749C10.9321 62.2429 8.44724 63.1798 6.60321 65.0261L0.575228 71.0243C0.207491 71.3905 0.000734526 71.888 -2.84136e-05 72.4068C-0.000791353 72.9263 0.205965 73.4238 0.572939 73.7907L22.6989 95.887ZM80.4718 7.42188V47.6448L74.8192 53.4889C73.3642 51.7014 71.1471 50.5875 68.7523 50.5875H46.1067C45.9816 50.5875 45.8458 50.5585 45.7092 50.5035C42.6666 49.263 39.4447 48.6343 36.1343 48.6343C35.4805 48.6343 34.8289 48.658 34.1812 48.7007V7.42188H80.4718ZM32.5073 52.7977C36.4586 52.2263 40.4098 52.562 44.2421 54.1237C44.8509 54.3694 45.4788 54.4945 46.1067 54.4945H68.7523C70.8702 54.4945 72.6585 56.2218 72.6585 58.4007C72.6585 60.5545 70.906 62.307 68.7523 62.307H51.7593C50.6813 62.307 49.8062 63.1813 49.8062 64.2601C49.8062 65.3389 50.6813 66.2132 51.7593 66.2132H68.7523C73.0606 66.2132 76.5648 62.7083 76.5648 58.4007C76.5648 58.0559 76.5396 57.7133 76.4953 57.3753C76.9027 56.958 88.7085 44.7479 89.1174 44.3245C89.1472 44.2932 89.1769 44.2612 89.2044 44.2284C90.596 42.585 93.0671 42.3775 94.7113 43.763C96.3569 45.1538 96.5652 47.6234 95.166 49.279L77.7275 70.2202C75.1709 72.6753 71.8139 74.0257 68.264 74.0257H42.5483C39.1647 74.0257 35.9588 75.3197 33.519 77.6718L32.6576 78.5034C32.3127 77.9732 31.9114 77.478 31.4583 77.0256L19.4618 65.0291C18.8209 64.3883 18.0938 63.8557 17.3073 63.4354C20.2911 57.55 25.621 53.7987 32.5073 52.7977ZM9.36276 67.791C11.4151 65.7356 14.6949 65.786 16.6992 67.7917L28.6972 79.789C30.7083 81.7963 30.7441 85.08 28.6964 87.1254L24.0776 91.7435L4.71952 72.4113L9.36276 67.791Z" />
</g>
<defs>
<clipPath id="clip0">
<rect width="100" height="100" fill="white"/>
</clipPath>
</defs>
</svg>
