<svg viewBox="0 0 75 75"  xmlns="http://www.w3.org/2000/svg">
<path d="M4.6875 14.0625H14.0625V16.4062C14.0633 17.0276 14.3105 17.6233 14.7499 18.0626C15.1892 18.502 15.7849 18.7492 16.4062 18.75H39.8438C40.4651 18.7492 41.0608 18.502 41.5001 18.0626C41.9395 17.6233 42.1867 17.0276 42.1875 16.4062V14.0625H51.5625V29.2969H53.9062V14.0625C53.9054 13.4411 53.6583 12.8455 53.2189 12.4061C52.7795 11.9667 52.1839 11.7196 51.5625 11.7188H41.319C41.2632 11.6655 41.2047 11.6151 41.1438 11.5677L38.15 9.57184C37.9575 9.44356 37.7313 9.37508 37.5 9.375H35.1562V7.61719C35.1555 7.25343 35.0704 6.89479 34.9076 6.56952C34.7447 6.24424 34.5086 5.96119 34.2178 5.74264L30.3131 2.81296C29.9068 2.50956 29.4137 2.34504 28.9066 2.34375H27.3434C26.8366 2.34487 26.3438 2.50942 25.938 2.81296L22.0333 5.7415C21.7422 5.96013 21.5059 6.24333 21.3429 6.5688C21.1798 6.89428 21.0945 7.25316 21.0938 7.61719V9.375H18.75C18.5187 9.37508 18.2925 9.44356 18.1 9.57184L15.1062 11.5677C15.0453 11.6151 14.9868 11.6655 14.931 11.7188H4.6875C4.06615 11.7196 3.47047 11.9667 3.03111 12.4061C2.59175 12.8455 2.34456 13.4411 2.34375 14.0625V70.3125C2.34456 70.9339 2.59175 71.5295 3.03111 71.9689C3.47047 72.4082 4.06615 72.6554 4.6875 72.6562H45.7031V70.3125H4.6875V14.0625ZM16.4062 13.5178L19.1048 11.7188H22.2656C22.4195 11.7188 22.572 11.6886 22.7142 11.6297C22.8564 11.5709 22.9856 11.4845 23.0945 11.3757C23.2033 11.2669 23.2896 11.1377 23.3485 10.9954C23.4073 10.8532 23.4376 10.7008 23.4375 10.5469V7.61719L27.3434 4.6875H28.9066L32.8125 7.61719V10.5469C32.8124 10.7008 32.8427 10.8532 32.9015 10.9954C32.9604 11.1377 33.0467 11.2669 33.1555 11.3757C33.2644 11.4845 33.3936 11.5709 33.5358 11.6297C33.678 11.6886 33.8305 11.7188 33.9844 11.7188H37.1452L39.8438 13.5178V16.4062L16.4062 16.4085V13.5178Z" />
<path d="M28.125 9.375C28.7722 9.375 29.2969 8.85033 29.2969 8.20312C29.2969 7.55592 28.7722 7.03125 28.125 7.03125C27.4778 7.03125 26.9531 7.55592 26.9531 8.20312C26.9531 8.85033 27.4778 9.375 28.125 9.375Z" />
<path d="M19.1711 43.6306L16.3375 45.992C15.9997 45.8051 15.6204 45.7058 15.2344 45.7031H10.5469C9.92552 45.7039 9.32985 45.9511 8.89049 46.3905C8.45112 46.8299 8.20393 47.4255 8.20312 48.0469V52.7344C8.20393 53.3557 8.45112 53.9514 8.89049 54.3908C9.32985 54.8301 9.92552 55.0773 10.5469 55.0781H15.2344C15.8557 55.0773 16.4514 54.8301 16.8908 54.3908C17.3301 53.9514 17.5773 53.3557 17.5781 52.7344V48.0469C17.5781 48.0354 17.5749 48.0249 17.5748 48.0135L20.6726 45.4319L19.1711 43.6306ZM15.2344 52.7344H10.5469V48.0469H13.8716L12.1399 49.49L13.6414 51.2913L15.2344 49.9638V52.7344Z" />
<path d="M19.1711 56.5212L16.3375 58.8826C15.9997 58.6958 15.6204 58.5965 15.2344 58.5938H10.5469C9.92552 58.5946 9.32985 58.8418 8.89049 59.2811C8.45112 59.7205 8.20393 60.3162 8.20312 60.9375V65.625C8.20393 66.2464 8.45112 66.842 8.89049 67.2814C9.32985 67.7208 9.92552 67.968 10.5469 67.9688H15.2344C15.8557 67.968 16.4514 67.7208 16.8908 67.2814C17.3301 66.842 17.5773 66.2464 17.5781 65.625V60.9375C17.5781 60.9261 17.5749 60.9155 17.5748 60.9041L20.6726 58.3225L19.1711 56.5212ZM15.2344 65.625H10.5469V60.9375H13.8716L12.1399 62.3806L13.6414 64.1819L15.2344 62.8544V65.625Z" />
<path d="M26.9531 46.875H24.6094V49.2188H26.9531V46.875Z" />
<path d="M44.5312 46.875H29.2969V49.2188H44.5312V46.875Z" />
<path d="M30.4688 51.5625H22.2656V53.9062H30.4688V51.5625Z" />
<path d="M44.5312 51.5625H32.8125V53.9062H44.5312V51.5625Z" />
<path d="M26.9531 59.7656H24.6094V62.1094H26.9531V59.7656Z" />
<path d="M45.7031 59.7656H29.2969V62.1094H45.7031V59.7656Z" />
<path d="M30.4688 64.4531H22.2656V66.7969H30.4688V64.4531Z" />
<path d="M45.7031 64.4531H32.8125V66.7969H45.7031V64.4531Z" />
<path d="M48.0469 29.2969V24.6094C48.0461 23.988 47.7989 23.3923 47.3595 22.953C46.9202 22.5136 46.3245 22.2664 45.7031 22.2656H10.5469C9.92552 22.2664 9.32985 22.5136 8.89049 22.953C8.45112 23.3923 8.20393 23.988 8.20312 24.6094V38.6719C8.20393 39.2932 8.45112 39.8889 8.89049 40.3283C9.32985 40.7676 9.92552 41.0148 10.5469 41.0156H38.6719V38.6719H22.2656V31.6406H39.8438V29.2969H22.2656V24.6094H45.7031V29.2969H48.0469ZM19.9219 38.6719H10.5469V31.6406H19.9219V38.6719ZM10.5469 29.2969V24.6094H19.9219V29.2969H10.5469Z" />
<path d="M72.5921 45.322C72.5416 45.1746 72.4621 45.0387 72.3583 44.9224C72.2546 44.806 72.1286 44.7116 71.9879 44.6445L66.7968 42.1726V40.0326C66.796 39.4128 66.6317 38.8043 66.3207 38.2683C66.0097 37.7322 65.5629 37.2876 65.0253 36.9793L58.9863 33.5289C58.5272 33.2648 58.0141 33.1084 57.4858 33.0716C56.9575 33.0347 56.4277 33.1183 55.9364 33.316L51.731 34.9984L47.3785 32.9258C47.1052 32.7944 46.7913 32.7755 46.5042 32.8732L42.9886 34.045C42.8426 34.0937 42.7076 34.1706 42.5914 34.2714C42.4752 34.3722 42.38 34.4949 42.3112 34.6326C42.2424 34.7702 42.2015 34.9201 42.1906 35.0735C42.1798 35.227 42.1994 35.3811 42.2481 35.527L43.42 39.0427C43.4698 39.1923 43.5492 39.3304 43.6537 39.4486C43.7581 39.5668 43.8853 39.6626 44.0277 39.7305L48.4169 41.8204C48.1767 42.2981 48.0501 42.8248 48.0468 43.3594V51.2856C48.0475 51.6493 48.1321 52.0081 48.294 52.3338L50.3906 56.5269V72.6562H52.7344V56.5269C52.7337 56.1632 52.6491 55.8044 52.4872 55.4787L50.3906 51.2856V43.3594C50.3906 43.0486 50.5141 42.7505 50.7338 42.5307C50.9536 42.311 51.2517 42.1875 51.5625 42.1875C51.8733 42.1875 52.1713 42.311 52.3911 42.5307C52.6109 42.7505 52.7344 43.0486 52.7344 43.3594V47.3602L56.5933 51.2192L58.2504 49.5621L55.0781 46.3898V44.9926L64.4531 49.4569V50.6218C64.454 51.7681 64.1147 52.8889 63.4781 53.8422C62.5845 55.1803 62.1082 56.7535 62.1093 58.3626V72.6562H64.4531V58.3626C64.4522 57.2163 64.7915 56.0955 65.4281 55.1422C66.3217 53.8041 66.798 52.2308 66.7968 50.6218V50.5729L68.6371 51.4492C68.9142 51.5807 69.2319 51.5985 69.522 51.4986C69.8121 51.3987 70.0515 51.1891 70.1889 50.9148L72.5326 46.2273C72.6024 46.088 72.6436 45.9361 72.6538 45.7807C72.664 45.6252 72.643 45.4693 72.5921 45.322ZM56.8062 35.4927C56.9701 35.4272 57.1468 35.3996 57.323 35.4119C57.4991 35.4242 57.6702 35.476 57.8235 35.5637L63.8626 39.0141C64.0418 39.117 64.1908 39.2653 64.2944 39.4441C64.3981 39.6229 64.4528 39.8259 64.4531 40.0326V41.0565L54.6122 36.3704L56.8062 35.4927ZM68.6062 48.8388L54.9008 42.3115C54.76 41.8485 54.5243 41.4201 54.2086 41.0534C53.8929 40.6867 53.5042 40.3899 53.0674 40.1818C52.6306 39.9738 52.1551 39.8592 51.6715 39.8452C51.1879 39.8312 50.7066 39.9183 50.2585 40.1007L45.4857 37.8284L44.8414 35.8978L46.7972 35.2455L69.9016 46.2479L68.6062 48.8388Z" />
</svg>
