<svg viewBox="0 0 100 100"  xmlns="http://www.w3.org/2000/svg">
<g clip-path="url(#clip0)">
<path d="M94.5763 4.49219H5.42374C2.43301 4.49219 0 6.9252 0 9.91592V29.554C0 30.3703 0.662231 31.0333 1.47934 31.0333C2.29645 31.0333 2.95868 30.3703 2.95868 29.554V9.91592C2.95868 8.55713 4.06494 7.45087 5.42374 7.45087H94.5763C95.9358 7.45087 97.0413 8.55713 97.0413 9.91592V69.088C97.0413 70.4475 95.9351 71.553 94.5763 71.553H63.9496C64.0495 70.8771 64.1022 70.1859 64.1022 69.4817C64.1022 68.7782 64.0495 68.087 63.9496 67.411H83.136C83.9531 67.411 84.6153 66.7488 84.6153 65.9317C84.6153 62.1796 87.6678 59.127 91.42 59.127C92.2371 59.127 92.8993 58.4648 92.8993 57.6477V32.4837C92.8993 31.6666 92.2371 31.0043 91.42 31.0043C90.6029 31.0043 89.9406 31.6666 89.9406 32.4837V56.2805C85.7391 56.9221 82.4097 60.2509 81.7688 64.4524H63.1721C61.142 59.1537 56.0043 55.3795 50 55.3795C43.9957 55.3795 38.858 59.1537 36.8279 64.4524H18.2312C17.5903 60.2509 14.2609 56.9221 10.0594 56.2805V22.7234C14.2609 22.0818 17.5903 18.7531 18.2312 14.5515H81.7688C82.4104 18.7531 85.7391 22.0818 89.9406 22.7234V25.5844C89.9406 26.4015 90.6036 27.0638 91.42 27.0638C92.2371 27.0638 92.8993 26.4015 92.8993 25.5844V21.3562C92.8993 20.5391 92.2371 19.8769 91.42 19.8769C87.6678 19.8769 84.6153 16.8243 84.6153 13.0722C84.6153 12.2551 83.9531 11.5929 83.136 11.5929H16.864C16.0469 11.5929 15.3847 12.2551 15.3847 13.0722C15.3847 16.8243 12.3322 19.8769 8.58002 19.8769C7.76291 19.8769 7.10068 20.5391 7.10068 21.3562V57.6477C7.10068 58.4648 7.76291 59.127 8.58002 59.127C12.3322 59.127 15.3847 62.1796 15.3847 65.9317C15.3847 66.7488 16.0469 67.411 16.864 67.411H36.0504C35.9505 68.0878 35.8978 68.779 35.8978 69.4824C35.8978 70.1859 35.9505 70.8771 36.0504 71.5538H5.42374C4.06418 71.5538 2.95868 70.4475 2.95868 69.088V36.4326C2.95868 35.6155 2.29645 34.9533 1.47934 34.9533C0.662231 34.9533 0 35.6155 0 36.4326V69.088C0 72.0787 2.43301 74.5117 5.42374 74.5117H36.8279C37.3268 75.8148 38.0142 77.0248 38.8557 78.1097V93.94C38.8557 94.4328 39.1014 94.8929 39.5103 95.1675C39.9193 95.4422 40.4381 95.4956 40.8943 95.3094L50 91.5924L59.1057 95.3094C59.2857 95.3827 59.4757 95.4193 59.6642 95.4193C59.9541 95.4193 60.2425 95.3339 60.4897 95.1675C60.8986 94.8929 61.1443 94.4328 61.1443 93.94V89.7087C61.1443 88.8916 60.4813 88.2294 59.6649 88.2294C58.8478 88.2294 58.1856 88.8916 58.1856 89.7087V91.7381L50.5592 88.6253C50.2007 88.4796 49.7993 88.4796 49.4408 88.6253L41.8144 91.7381V80.9555C44.1246 82.608 46.9498 83.5846 50 83.5846C53.0502 83.5846 55.8754 82.608 58.1856 80.9555V82.7957C58.1856 83.6128 58.8478 84.2751 59.6649 84.2751C60.4813 84.2751 61.1443 83.6128 61.1443 82.7957V78.1097C61.9858 77.0248 62.6732 75.8148 63.1721 74.5117H94.5763C97.567 74.5117 100 72.0787 100 69.088V9.91592C100 6.9252 97.567 4.49219 94.5763 4.49219V4.49219ZM50 80.6259C43.8553 80.6259 38.8557 75.6271 38.8557 69.4824C38.8557 63.3377 43.8553 58.3382 50 58.3382C56.1447 58.3382 61.1443 63.3377 61.1443 69.4824C61.1443 75.6271 56.1447 80.6259 50 80.6259Z" />
<path d="M63.018 24.0189C63.8351 24.0189 64.4974 23.3566 64.4974 22.5395C64.4974 21.7224 63.8351 21.0602 63.018 21.0602H36.982C36.1649 21.0602 35.5026 21.7224 35.5026 22.5395C35.5026 23.3566 36.1649 24.0189 36.982 24.0189H63.018Z" />
<path d="M72.8798 28.9497H27.1202C26.3031 28.9497 25.6409 29.6119 25.6409 30.429C25.6409 31.2462 26.3031 31.9084 27.1202 31.9084H72.8798C73.6969 31.9084 74.3591 31.2462 74.3591 30.429C74.3591 29.6119 73.6969 28.9497 72.8798 28.9497Z" />
<path d="M72.8798 36.8393H27.1202C26.3031 36.8393 25.6409 37.5015 25.6409 38.3186C25.6409 39.1357 26.3031 39.798 27.1202 39.798H72.8798C73.6969 39.798 74.3591 39.1357 74.3591 38.3186C74.3591 37.5015 73.6969 36.8393 72.8798 36.8393Z" />
<path d="M72.8798 45.9122H65.7791C64.962 45.9122 64.2998 46.5744 64.2998 47.3915C64.2998 48.2086 64.962 48.8708 65.7791 48.8708H72.8798C73.6969 48.8708 74.3591 48.2086 74.3591 47.3915C74.3591 46.5744 73.6969 45.9122 72.8798 45.9122Z" />
<path d="M27.1202 45.9122C26.3031 45.9122 25.6409 46.5744 25.6409 47.3915C25.6409 48.2086 26.3031 48.8708 27.1202 48.8708H34.2209C35.038 48.8708 35.7002 48.2086 35.7002 47.3915C35.7002 46.5744 35.038 45.9122 34.2209 45.9122H27.1202Z" />
<path d="M50 61.6913C45.7039 61.6913 42.2089 65.1863 42.2089 69.4824C42.2089 73.7785 45.7039 77.2736 50 77.2736C54.2961 77.2736 57.7911 73.7785 57.7911 69.4824C57.7911 65.1863 54.2961 61.6913 50 61.6913ZM50 74.3149C47.3351 74.3149 45.1675 72.1466 45.1675 69.4824C45.1675 66.8175 47.3351 64.65 50 64.65C52.6649 64.65 54.8325 66.8175 54.8325 69.4824C54.8325 72.1466 52.6649 74.3149 50 74.3149Z" />
<path d="M44.9707 47.3915C44.9707 50.1648 47.2267 52.4208 50 52.4208C52.7733 52.4208 55.0293 50.1648 55.0293 47.3915C55.0293 44.6182 52.7733 42.3622 50 42.3622C47.2267 42.3622 44.9707 44.6182 44.9707 47.3915ZM52.0714 47.3915C52.0714 48.5336 51.1421 49.4629 50 49.4629C48.8579 49.4629 47.9286 48.5336 47.9286 47.3915C47.9286 46.2494 48.8579 45.3201 50 45.3201C51.1421 45.3201 52.0714 46.2494 52.0714 47.3915Z" />
</g>
<defs>
<clipPath id="clip0">
<rect width="100" height="100" fill="white"/>
</clipPath>
</defs>
</svg>
