<svg viewBox="0 0 100 100"  xmlns="http://www.w3.org/2000/svg">
<path d="M92.1875 35.9375C88.7406 35.9375 85.9375 38.7406 85.9375 42.1875V54.9844C84.1016 54.45 81.9953 54.8563 80.6031 56.25L73.9734 62.8797C71.6125 65.2406 70.3125 68.3797 70.3125 71.7172V82.8125H68.75C67.8875 82.8125 67.1875 83.5109 67.1875 84.375V96.875C67.1875 97.7391 67.8875 98.4375 68.75 98.4375H90.625C91.4875 98.4375 92.1875 97.7391 92.1875 96.875V84.375C92.1875 83.5109 91.4875 82.8125 90.625 82.8125H89.0625V80.3344L94.3187 75.0781C96.975 72.4234 98.4375 68.8922 98.4375 65.1359V42.1875C98.4375 38.7406 95.6344 35.9375 92.1875 35.9375ZM89.0625 95.3125H70.3125V85.9375H89.0625V95.3125ZM95.3125 65.1359C95.3125 68.0578 94.175 70.8031 92.1094 72.8688L86.3953 78.5828C86.1016 78.875 85.9375 79.2719 85.9375 79.6875V82.8125H73.4375V71.7172C73.4375 69.2125 74.4125 66.8594 76.1828 65.0891L82.8125 58.4594C83.6453 57.6234 85.1016 57.6234 85.9375 58.4594L86.8516 59.375C87.2703 59.7938 87.5 60.3469 87.5 60.9375C87.5 61.5281 87.2703 62.0812 86.8531 62.5L81.7078 67.6453L83.9172 69.8547L89.0625 64.7094C90.0703 63.7 90.625 62.3609 90.625 60.9375C90.625 59.5141 90.0703 58.1734 89.0625 57.1656V42.1875C89.0625 40.4641 90.4641 39.0625 92.1875 39.0625C93.9109 39.0625 95.3125 40.4641 95.3125 42.1875V65.1359Z" />
<path d="M10.9375 80.3344V82.8125H9.375C8.5125 82.8125 7.8125 83.5109 7.8125 84.375V96.875C7.8125 97.7391 8.5125 98.4375 9.375 98.4375H31.25C32.1125 98.4375 32.8125 97.7391 32.8125 96.875V84.375C32.8125 83.5109 32.1125 82.8125 31.25 82.8125H29.6875V71.7172C29.6875 68.3781 28.3875 65.2391 26.0266 62.8797L19.3984 56.25C18.0047 54.8563 15.9 54.4516 14.0625 54.9844V42.1875C14.0625 38.7406 11.2594 35.9375 7.8125 35.9375C4.36562 35.9375 1.5625 38.7406 1.5625 42.1875V65.1359C1.5625 68.8922 3.025 72.4234 5.68125 75.0781L10.9375 80.3344ZM29.6875 95.3125H10.9375V85.9375H29.6875V95.3125ZM4.6875 42.1875C4.6875 40.4641 6.08906 39.0625 7.8125 39.0625C9.53594 39.0625 10.9375 40.4641 10.9375 42.1875V57.1641C9.92969 58.1734 9.375 59.5141 9.375 60.9375C9.375 62.3609 9.92969 63.7016 10.9375 64.7094L16.0828 69.8547L18.2922 67.6453L13.1484 62.5C12.7297 62.0812 12.5 61.5281 12.5 60.9375C12.5 60.3469 12.7297 59.7938 13.1469 59.375L14.0625 58.4594C14.8953 57.6234 16.3516 57.6234 17.1875 58.4594L23.8172 65.0891C25.5875 66.8594 26.5625 69.2141 26.5625 71.7172V82.8125H14.0625V79.6875C14.0625 79.2719 13.8984 78.875 13.6047 78.5828L7.89063 72.8688C5.825 70.8016 4.6875 68.0578 4.6875 65.1359V42.1875Z" />
<path d="M18.75 28.125C17.8875 28.125 17.1875 28.825 17.1875 29.6875V39.0625C17.1875 39.925 17.8875 40.625 18.75 40.625H24.1922C24.8391 43.3187 25.8875 45.8609 27.325 48.2109L23.4828 52.0516C23.1891 52.3453 23.025 52.7406 23.025 53.1562C23.025 53.5703 23.1891 53.9688 23.4828 54.2609L30.1125 60.8906C30.6984 61.4766 31.7359 61.4766 32.3219 60.8906L36.1641 57.0484C38.5125 58.4844 41.0547 59.5359 43.75 60.1812V65.625C43.75 66.4891 44.45 67.1875 45.3125 67.1875H54.6875C55.55 67.1875 56.25 66.4891 56.25 65.625V60.1828C58.9453 59.5375 61.4875 58.4859 63.8359 57.05L67.6781 60.8922C68.2641 61.4781 69.3016 61.4781 69.8875 60.8922L76.5172 54.2625C76.8109 53.9688 76.975 53.5719 76.975 53.1578C76.975 52.7422 76.8109 52.3453 76.5172 52.0531L72.675 48.2125C74.1125 45.8625 75.1625 43.3203 75.8078 40.6266H81.25C82.1125 40.6266 82.8125 39.9266 82.8125 39.0641V29.6891C82.8125 28.8266 82.1125 28.1266 81.25 28.1266H75.8078C75.1609 25.4328 74.1125 22.8906 72.675 20.5406L76.5172 16.6984C76.8109 16.4047 76.975 16.0078 76.975 15.5937C76.975 15.1797 76.8109 14.7812 76.5172 14.4891L69.8875 7.85938C69.3016 7.27344 68.2641 7.27344 67.6781 7.85938L63.8359 11.7016C61.4859 10.2641 58.9437 9.21406 56.25 8.56719V3.125C56.25 2.2625 55.55 1.5625 54.6875 1.5625H45.3125C44.45 1.5625 43.75 2.2625 43.75 3.125V8.56719C41.0562 9.21406 38.5141 10.2625 36.1641 11.7L32.3219 7.85781C32.0281 7.56406 31.6313 7.4 31.2172 7.4C30.8031 7.4 30.4047 7.56406 30.1125 7.85781L23.4828 14.4875C23.1891 14.7813 23.025 15.1781 23.025 15.5922C23.025 16.0063 23.1891 16.4047 23.4828 16.6969L27.325 20.5391C25.8875 22.8891 24.8375 25.4312 24.1922 28.125H18.75ZM26.9891 29.9797C27.5922 26.8063 28.8109 23.8547 30.6141 21.2062C31.0375 20.5859 30.9578 19.7531 30.4266 19.2219L26.7969 15.5922L31.2172 11.1719L34.8469 14.8016C35.3781 15.3312 36.2109 15.4109 36.8313 14.9891C39.4797 13.1859 42.4313 11.9672 45.6047 11.3641C46.3406 11.225 46.875 10.5797 46.875 9.82969V4.6875H53.125V9.82969C53.125 10.5797 53.6594 11.225 54.3953 11.3641C57.5687 11.9672 60.5203 13.1859 63.1688 14.9891C63.7906 15.4125 64.6234 15.3312 65.1531 14.8016L68.7828 11.1719L73.2031 15.5922L69.5734 19.2219C69.0422 19.7516 68.9641 20.5859 69.3859 21.2062C71.1891 23.8547 72.4078 26.8063 73.0109 29.9797C73.15 30.7156 73.7953 31.25 74.5453 31.25H79.6875V37.5H74.5453C73.7953 37.5 73.15 38.0344 73.0109 38.7703C72.4078 41.9437 71.1891 44.8953 69.3859 47.5438C68.9625 48.1641 69.0422 48.9969 69.5734 49.5281L73.2031 53.1562L68.7828 57.5766L65.1531 53.9469C64.625 53.4172 63.7891 53.3344 63.1688 53.7609C60.5219 55.5625 57.5703 56.7828 54.3953 57.3844C53.6594 57.525 53.125 58.1703 53.125 58.9203V64.0625H46.875V58.9203C46.875 58.1703 46.3406 57.525 45.6047 57.3859C42.4297 56.7828 39.4781 55.5641 36.8313 53.7625C36.2094 53.3375 35.3781 53.4188 34.8469 53.9484L31.2172 57.5781L26.7969 53.1578L30.4266 49.5297C30.9578 49 31.0359 48.1656 30.6141 47.5453C28.8109 44.8969 27.5922 41.9453 26.9891 38.7719C26.85 38.0344 26.2047 37.5 25.4547 37.5H20.3125V31.25H25.4547C26.2047 31.25 26.85 30.7156 26.9891 29.9797Z" />
<path d="M50 54.6875C61.2 54.6875 70.3125 45.575 70.3125 34.375C70.3125 23.175 61.2 14.0625 50 14.0625C38.8 14.0625 29.6875 23.175 29.6875 34.375C29.6875 45.575 38.8 54.6875 50 54.6875ZM48.4375 51.4828V39.0625C48.4375 38.6484 48.2734 38.25 47.9797 37.9578L45.3125 35.2906V32.8125H54.6875V35.2906L52.0203 37.9578C51.7266 38.25 51.5625 38.6484 51.5625 39.0625V51.4828C51.0469 51.5297 50.5281 51.5625 50 51.5625C49.4719 51.5625 48.9531 51.5297 48.4375 51.4828ZM54.6875 29.6875H45.3125V26.5625H54.6875V29.6875ZM50 17.1875C59.4766 17.1875 67.1875 24.8984 67.1875 34.375C67.1875 42.225 61.8906 48.8484 54.6875 50.8969V39.7109L57.3547 37.0438C57.6484 36.75 57.8125 36.3516 57.8125 35.9375V25C57.8125 24.1375 57.1125 23.4375 56.25 23.4375H43.75C42.8875 23.4375 42.1875 24.1375 42.1875 25V35.9375C42.1875 36.3516 42.3516 36.75 42.6453 37.0422L45.3125 39.7094V50.8953C38.1094 48.8484 32.8125 42.225 32.8125 34.3734C32.8125 24.8984 40.5234 17.1875 50 17.1875Z" />
</svg>
