<svg viewBox="0 0 100 100"  xmlns="http://www.w3.org/2000/svg">
<g clip-path="url(#clip0)">
<path d="M98.3328 31.6663H86.6662C85.7458 31.6663 84.9996 32.4126 84.9996 33.333V38.3329H69.9997V36.6663C69.9997 35.7459 69.2535 34.9996 68.3331 34.9996H61.6665V26.6664C61.6665 25.746 60.9203 24.9997 59.9998 24.9997H54.9999V14.9998H59.8332L69.8014 16.9998C73.6637 17.7719 77.4205 15.2667 78.1926 11.4045C78.9647 7.54221 76.4595 3.78538 72.5972 3.0133C71.6745 2.82893 70.7243 2.82893 69.8016 3.0133L59.8332 4.99995H54.9999V1.66665C54.9999 0.746242 54.2537 0 53.3332 0H46.6667C45.7462 0 45 0.746242 45 1.66665V4.99995H40.1667L30.1968 2.99997C26.3346 2.22331 22.574 4.72474 21.7973 8.58699C21.0207 12.4492 23.5221 16.2098 27.3844 16.9865C27.8462 17.0794 28.316 17.1263 28.787 17.1265C29.2606 17.1263 29.7327 17.0794 30.197 16.9865L40.1667 14.9998H45V24.9997H40.0001C39.0797 24.9997 38.3334 25.746 38.3334 26.6664V34.9996H31.6668C30.7464 34.9996 30.0002 35.7459 30.0002 36.6663V39.9996H21.6669C9.70662 40.0133 0.0142229 49.7057 0.000473022 61.666V71.6659C0.000473022 72.5863 0.746715 73.3326 1.66712 73.3326H18.3336C19.254 73.3326 20.0003 72.5863 20.0003 71.6659V61.666C20.0003 60.7456 20.7465 59.9994 21.6669 59.9994H30.0002V63.3327C30.0002 64.2531 30.7464 64.9993 31.6668 64.9993H68.3331C69.2535 64.9993 69.9997 64.2531 69.9997 63.3327V61.666H84.9996V66.666C84.9996 67.5864 85.7458 68.3326 86.6662 68.3326H98.3328C99.2532 68.3326 99.9994 67.5864 99.9994 66.666V33.333C99.9994 32.4126 99.2532 31.6663 98.3328 31.6663ZM54.9999 8.33325H59.9998C60.1119 8.33429 60.2236 8.32304 60.3332 8.29991L70.4631 6.27493C72.5203 5.86473 74.5205 7.19992 74.9307 9.2572C75.3409 11.3145 74.0057 13.3147 71.9485 13.7249C71.4581 13.8226 70.9533 13.8226 70.4629 13.7249L60.333 11.6999C60.2234 11.6768 60.1117 11.6655 59.9996 11.6665H54.9997V8.33325H54.9999ZM30.0002 56.6661H21.6669C18.9055 56.6661 16.667 58.9046 16.667 61.666V69.9993H3.33377V61.666C3.34565 51.5459 11.5468 43.3448 21.6669 43.3329H30.0002V56.6661ZM48.3333 3.3333H51.6666V4.99995H48.3333V3.3333ZM48.3333 8.33325H51.6666V11.6665H48.3333V8.33325ZM48.3333 14.9998H51.6666V24.9997H48.3333V14.9998ZM40.0001 11.6665C39.888 11.6655 39.7763 11.6768 39.6667 11.6999L29.5368 13.7249C27.4796 14.1351 25.4794 12.7999 25.0692 10.7426C24.659 8.68533 25.9942 6.68514 28.0514 6.27493C28.5418 6.17723 29.0466 6.17723 29.537 6.27493L39.6669 8.29991C39.7765 8.32304 39.8882 8.33429 40.0003 8.33325H45.0002V11.6665H40.0001ZM41.6667 28.333H58.3332V34.9996H41.6667V28.333ZM66.6664 61.666H33.3335V38.3329H66.6664V61.666ZM84.9996 58.3327H69.9997V41.6662H84.9996V58.3327ZM96.6661 64.9993H88.3329V34.9996H96.6661V64.9993Z" />
<path d="M17.4238 88.5975L11.4688 77.5426C10.9567 76.7316 9.88405 76.4895 9.07322 77.0016C8.85489 77.1395 8.6701 77.3243 8.53219 77.5426L2.57725 88.5975C1.31309 90.9189 1.37663 93.737 2.74391 95.999C4.2816 98.5257 7.04324 100.048 10.0005 99.999C12.9578 100.048 15.7194 98.5257 17.2571 95.999C18.6244 93.7368 18.6879 90.9189 17.4238 88.5975ZM14.3971 94.2891C13.4569 95.8051 11.7838 96.7094 10.0005 96.6657C8.21719 96.7094 6.54408 95.8051 5.60388 94.2891C4.83452 93.0351 4.80014 91.4639 5.51388 90.1774L10.0005 81.8442L14.4871 90.1774C15.2009 91.4639 15.1665 93.0351 14.3971 94.2891Z" />
</g>
<defs>
<clipPath id="clip0">
<rect width="100" height="100" fill="white"/>
</clipPath>
</defs>
</svg>
