<svg viewBox="0 0 50 50"  xmlns="http://www.w3.org/2000/svg">
<path d="M48.764 5.30859C48.5912 5.35625 44.8386 6.40039 40.5263 8.38008C39.8513 3.64922 35.7738 0 30.8594 0H5.37109C2.40947 0 0 2.40947 0 5.37109C0 8.33272 2.40947 10.7422 5.37109 10.7422H11.7188V41.6992C11.7188 46.2763 15.4425 50 20.0195 50H31.3477C31.887 50 32.3242 49.5628 32.3242 49.0234C32.3242 48.4841 31.887 48.0469 31.3477 48.0469H24.1597C24.9282 47.1176 25.3906 45.9263 25.3906 44.6289C25.3906 43.3315 24.9282 42.1402 24.1597 41.2109H44.6289C46.5136 41.2109 48.0469 42.7442 48.0469 44.6289C48.0469 46.5136 46.5136 48.0469 44.6289 48.0469H40.1367C39.5974 48.0469 39.1602 48.4841 39.1602 49.0234C39.1602 49.5628 39.5974 50 40.1367 50H44.6289C47.5905 50 50 47.5905 50 44.6289C50 41.6673 47.5905 39.2578 44.6289 39.2578H40.625V24.312C40.6972 24.2423 40.7694 24.1722 40.8419 24.0997C46.6779 18.2637 49.8334 6.98652 49.9648 6.50937C50.0582 6.17061 49.9624 5.80781 49.7139 5.55938C49.4655 5.31104 49.1027 5.21523 48.764 5.30859ZM1.95312 5.37109C1.95312 3.48643 3.48643 1.95312 5.37109 1.95312C8.87119 1.95312 11.7188 4.80068 11.7188 8.30078V8.78906H5.37109C3.48643 8.78906 1.95312 7.25576 1.95312 5.37109ZM18.5547 39.2578C18.0153 39.2578 17.5781 39.695 17.5781 40.2344C17.5781 40.7737 18.0153 41.2109 18.5547 41.2109H20.0195C21.9042 41.2109 23.4375 42.7442 23.4375 44.6289C23.4375 46.5136 21.9042 48.0469 20.0195 48.0469C16.5194 48.0469 13.6719 45.1993 13.6719 41.6992C13.6719 40.4315 13.6719 10.4592 13.6719 8.30078C13.6719 5.75645 12.5202 3.47705 10.7119 1.95312H30.8594C35.0056 1.95312 38.4062 5.20019 38.6557 9.28467C35.4974 10.8937 32.9817 12.6234 31.1737 14.4316C27.4997 18.1063 26.0642 22.9815 26.6725 27.2199L22.8876 31.0048C22.5063 31.3861 22.5063 32.0045 22.8876 32.3859C23.269 32.7673 23.8873 32.7673 24.2687 32.3859L28.052 28.6026C31.3465 29.0864 35.3055 28.3183 38.6719 25.9338V39.2578H18.5547ZM39.4608 22.7187C36.7001 25.4802 33.3253 26.7854 29.8813 26.7732L38.7697 17.8849C39.1511 17.5035 39.1511 16.8852 38.7697 16.5037C38.3884 16.1225 37.77 16.1225 37.3886 16.5037L28.5 25.3923C28.4951 23.1379 29.0879 19.2801 32.5548 15.8126C34.3185 14.0488 36.8523 12.3462 40.086 10.752C42.9758 9.32764 45.8015 8.30527 47.5418 7.73115C46.4281 11.1019 43.6278 18.5516 39.4608 22.7187Z" />
<path d="M35.7422 49.9998C36.2815 49.9998 36.7188 49.5625 36.7188 49.0232C36.7188 48.4839 36.2815 48.0466 35.7422 48.0466C35.2028 48.0466 34.7656 48.4839 34.7656 49.0232C34.7656 49.5625 35.2028 49.9998 35.7422 49.9998Z" />
</svg>
